<svg width="1920" height="546" viewBox="0 0 1920 546" fill="none" xmlns="http://www.w3.org/2000/svg">
<path opacity="0.1" d="M0 65.0004C0 65.0004 33.6659 166.613 82 177.841C181.823 201.031 187.885 26.4968 290 17.8412C405.172 8.07884 427.474 173.696 543 170C642.272 166.825 663.626 58.5811 761 39.0001C880.435 14.9827 933.038 143.484 1054 129C1120.71 121.012 1168.81 54.6503 1236 55.0001C1313.89 55.4057 1373.51 137.086 1451 145C1570.91 157.246 1643.92 -50.4824 1766 28.0001C1836 73 1920 123 1920 123V546H0V65.0004Z" fill="url(#paint0_linear)"/>
<path opacity="0.2" d="M0 85.9997C0 85.9997 28.6659 147.771 77 159C176.823 182.189 132 73.9999 174 19.0001C244.15 -72.8632 432.474 202.696 548 199C647.272 195.824 681.626 47.5808 779 27.9998C898.435 3.98238 949.038 167.484 1070 153C1136.71 145.012 1139.81 80.6503 1207 81.0001C1284.89 81.4057 1373.51 163.086 1451 171C1570.91 183.246 1592 71.0001 1657 59.0001C1735.57 44.4943 1920 134 1920 134V545.999H0V85.9997Z" fill="url(#paint1_linear)"/>
<path d="M0 156C0 156 55.6659 217.772 104 229C203.823 252.19 209.885 77.6556 312 69C427.172 59.2376 445.474 232.696 561 229C660.272 225.824 681.626 117.581 779 98C898.435 73.9826 962.038 182.484 1083 168C1149.71 160.012 1179.81 115.65 1247 116C1324.89 116.406 1355.51 180.086 1433 188C1552.91 200.246 1605.76 82.6648 1726 91C1805.71 96.5255 1920 156 1920 156V546H0V156Z" fill="url(#paint2_linear)"/>
<g opacity="0.1" filter="url(#filter0_f)">
<path d="M1409 561C1409 679.189 1207.98 775 960 775C712.024 775 511 679.189 511 561C511 442.811 712.024 347 960 347C1207.98 347 1409 442.811 1409 561Z" fill="#25E4FE"/>
</g>
<path opacity="0.3" d="M0 88C0 88 37.873 142.737 81 185.455C129 233 195.824 62.4132 278 55.4544C395.479 45.5062 449.407 228 567 219.499C671.682 211.932 686.578 87.3743 790 69.4993C905.746 49.4942 961.398 180.321 1077 159.499C1151.61 146.061 1173.37 74.6799 1249 69.4993C1336.23 63.5245 1366.79 183.827 1454 190C1558.24 197.379 1607.51 42.3268 1712 43.9988C1799.92 45.4057 1920 159.499 1920 159.499" stroke="#5437B2" stroke-width="2" stroke-linecap="round" stroke-dasharray="1 8"/>
<path opacity="0.3" d="M0 29.4991C0 29.4991 70.5756 167.109 130 179.499C210.734 196.332 220.824 36.4578 303 29.4991C420.479 19.5508 430.407 204.5 548 196C652.682 188.432 674.578 47.3741 778 29.4991C893.746 9.49397 956.398 155.32 1072 134.499C1146.61 121.061 1153.37 34.6796 1229 29.4991C1316.23 23.5242 1366.79 132.359 1454 138.533C1558.24 145.911 1641.4 -29.8207 1739 7.53095C1816 36.9999 1920 139.499 1920 139.499" stroke="#5437B2" stroke-width="2" stroke-linecap="round" stroke-dasharray="1 8"/>
<defs>
<filter id="filter0_f" x="261" y="97" width="1398" height="928" filterUnits="userSpaceOnUse" color-interpolation-filters="sRGB">
<feFlood flood-opacity="0" result="BackgroundImageFix"/>
<feBlend mode="normal" in="SourceGraphic" in2="BackgroundImageFix" result="shape"/>
<feGaussianBlur stdDeviation="125" result="effect1_foregroundBlur"/>
</filter>
<linearGradient id="paint0_linear" x1="0.000113118" y1="28.6027" x2="1158" y2="1281.22" gradientUnits="userSpaceOnUse">
<stop stop-color="#2A2895"/>
<stop offset="1" stop-color="#793BC8"/>
</linearGradient>
<linearGradient id="paint1_linear" x1="-2.53385e-05" y1="-1.39768" x2="1151.37" y2="1250.68" gradientUnits="userSpaceOnUse">
<stop stop-color="#793BC8"/>
<stop offset="1" stop-color="#2A2895"/>
</linearGradient>
<linearGradient id="paint2_linear" x1="-0.000155486" y1="129.376" x2="986.599" y2="1356.53" gradientUnits="userSpaceOnUse">
<stop stop-color="#2A2895"/>
<stop offset="1" stop-color="#793BC8"/>
</linearGradient>
</defs>
</svg>
