<svg width="286" height="47" viewBox="0 0 286 47" fill="none" xmlns="http://www.w3.org/2000/svg">
<path d="M19.9567 47C13.4402 47 8.4714 45.208 5.05026 41.6239C1.68342 37.9856 0 32.881 0 26.3102V11.6365H8.87868V26.2288C8.87868 29.5956 9.42172 32.2022 10.5078 34.0485C11.5939 35.8949 12.9786 37.1982 14.662 37.9584C16.3455 38.7187 18.1103 39.0988 19.9567 39.0988C22.0202 39.0988 23.8937 38.7458 25.5771 38.0399C27.2605 37.2796 28.591 35.9763 29.5685 34.13C30.6002 32.2836 31.1161 29.6499 31.1161 26.2288V11.6365H39.9133V26.3102C39.9133 32.9896 38.2299 38.1213 34.8631 41.7054C31.5505 45.2351 26.5817 47 19.9567 47Z" fill="white"/>
<path d="M61.151 45.8596H52.8425V0H71.2515C76.3561 0 80.3203 1.27614 83.1441 3.82842C85.9679 6.3807 87.3798 10.2363 87.3798 15.3951C87.3798 19.9024 85.9136 23.4321 82.9812 25.9844C80.1031 28.5367 76.1932 29.8128 71.2515 29.8128H61.151V45.8596ZM70.1112 6.76083H61.151V23.7036H70.1112C73.0436 23.7036 75.4058 22.9977 77.1978 21.5858C78.9899 20.1739 79.8859 18.056 79.8859 15.2322C79.8859 12.3541 78.9899 10.2363 77.1978 8.87868C75.4601 7.46678 73.0979 6.76083 70.1112 6.76083Z" fill="white"/>
<g opacity="0.6">
<path d="M97.9733 45.8596V0H106.282V38.773H128.927V45.8596H97.9733Z" fill="white"/>
<path d="M136.724 45.8596L151.386 0H164.989L180.059 45.8596H171.18L167.27 32.9081H149.431L145.521 45.8596H136.724ZM158.31 3.5026L151.386 26.4731H165.315L158.31 3.5026Z" fill="white"/>
<path d="M221.471 0H230.105V45.8596H214.303L198.582 3.66551H198.419V45.8596H189.866V0H204.528L221.308 42.1941H221.471V0Z" fill="white"/>
<path d="M285.287 22.8891C285.287 28.9168 284.093 33.6141 281.703 36.9809C279.368 40.2935 276.056 42.6014 271.766 43.9047C267.476 45.208 262.425 45.8596 256.615 45.8596H243.989V0H256.615C262.425 0 267.476 0.868864 271.766 2.60659C276.056 4.29001 279.368 6.81514 281.703 10.182C284.093 13.5488 285.287 17.7845 285.287 22.8891ZM252.216 39.0173H258.977C262.561 39.0173 265.656 38.6101 268.263 37.7955C270.87 36.9266 272.879 35.3247 274.291 32.9896C275.703 30.6545 276.409 27.2605 276.409 22.8076C276.409 17.5402 274.834 13.6303 271.684 11.078C268.589 8.4714 264.353 7.16811 258.977 7.16811H252.216V39.0173Z" fill="white"/>
</g>
<circle cx="4.3637" cy="4.3637" r="4.3637" fill="#FF6231"/>
<circle cx="35.4915" cy="4.3637" r="4.3637" fill="#FF6231"/>
</svg>
