<svg width="1740" height="1390" viewBox="0 0 1740 1390" fill="none" xmlns="http://www.w3.org/2000/svg">
<path opacity="0.5" d="M177.903 780.339C150.94 664.954 228.142 575.254 272.639 492.073C317.136 408.892 388.905 213.847 509.478 212.412C630.05 210.978 948.706 190.9 948.706 190.9C948.706 190.9 1143.88 85.2167 1245.83 143.573C1326.92 189.984 1312.85 273.575 1366.4 350.092C1435.4 448.666 1552.93 463.188 1568.79 582.425C1581.69 679.344 1486.98 819.062 1486.98 819.062L1327.65 1038.49C1327.65 1038.49 1306.93 1247.57 1215.69 1326.75C1112.79 1416.06 871.195 1382.69 871.195 1382.69C871.195 1382.69 665.87 1319.78 561.151 1236.4C462.971 1158.23 492.253 1090.12 358.762 986.858C225.271 883.598 202.29 884.698 177.903 780.339Z" fill="#EBEBF7"/>
<path opacity="0.3" d="M177.86 783.152C150.887 667.56 198.461 548.841 242.973 465.51C287.485 382.18 407.749 283.605 528.361 282.168C648.974 280.731 781.689 259.918 939.425 221.927C1021.22 202.228 1044.28 103.225 1146.27 161.687C1227.38 208.182 1369.5 187.295 1460.46 282.168C1547.38 372.833 1553.35 465.432 1569.21 584.883C1582.11 681.976 1432.29 709.197 1400.24 816.48C1372.71 908.601 1422.48 969.146 1400.24 1062.68C1369.18 1193.26 1308.23 1274.08 1216.96 1353.41C1114.03 1442.87 1016.13 1334.99 887.06 1330.55C759.325 1326.15 664.534 1414.07 559.78 1330.55C461.567 1252.24 455.056 1166.13 321.52 1062.68C187.985 959.237 202.255 887.699 177.86 783.152Z" stroke="#5437B2" stroke-width="2" stroke-linecap="round" stroke-dasharray="1 8"/>
<g opacity="0.3">
<circle cx="1487" cy="92" r="5" fill="#4043AF"/>
<circle cx="1668" cy="374" r="10" fill="#4043AF"/>
<circle cx="1667.5" cy="76.5" r="3.5" fill="#4043AF"/>
<circle cx="1601.5" cy="231.5" r="2.5" fill="#4043AF"/>
<circle cx="1643" cy="25" r="21.5" stroke="#4043AF" stroke-width="7"/>
<circle cx="1482" cy="277" r="12.5" stroke="#4043AF" stroke-width="5"/>
<circle cx="1732.5" cy="254.5" r="6" stroke="#4043AF" stroke-width="3"/>
</g>
<g opacity="0.3">
<circle cx="20" cy="1006" r="5" fill="#4043AF"/>
<circle cx="201" cy="1288" r="10" fill="#4043AF"/>
<circle cx="200.5" cy="990.5" r="3.5" fill="#4043AF"/>
<circle cx="134.5" cy="1145.5" r="2.5" fill="#4043AF"/>
<circle cx="176" cy="939" r="21.5" stroke="#4043AF" stroke-width="7"/>
<circle cx="15" cy="1191" r="12.5" stroke="#4043AF" stroke-width="5"/>
<circle cx="265.5" cy="1168.5" r="6" stroke="#4043AF" stroke-width="3"/>
</g>
</svg>
