<svg width="1922" height="125" viewBox="0 0 1922 125" fill="none" xmlns="http://www.w3.org/2000/svg">
<path fill-rule="evenodd" clip-rule="evenodd" d="M1 56.9016V125H1921V29.47C1921 29.47 1843.33 55.9073 1791 56.9016C1740.97 57.8521 1706.2 47.3278 1671.15 36.7163C1637.35 26.4834 1603.29 16.1695 1555 15.9867C1504.47 15.7954 1469.01 26.0768 1433.48 36.3795C1398.29 46.5819 1363.03 56.8052 1313 56.9016C1259.54 57.0045 1222.1 42.4853 1184.99 28.093C1146.48 13.1599 1108.33 -1.63662 1053 0.178683C1006.99 1.68811 976.574 15.1312 946.18 28.5638C915.675 42.0453 885.194 55.5163 839 56.9016C804.101 57.9481 775.92 50.4121 747.286 42.7549C722.429 36.1079 697.23 29.3695 667 28.0752C605.086 25.4242 559.498 33.7006 513.396 42.0701C469.801 49.9844 425.749 57.982 367 56.9016C325.487 56.1381 287.469 47.65 249.686 39.2143C207.053 29.6959 164.719 20.2442 118 22.0309C61.2594 24.201 1 56.9016 1 56.9016Z" fill="white"/>
<path opacity="0.2" fill-rule="evenodd" clip-rule="evenodd" d="M1 56.9016V65.7165C1 65.7165 40.2594 58.8712 97 56.9151C144.593 55.2744 172.76 59.5017 202.521 63.9681C227.865 67.7717 254.364 71.7487 295 72.4223C352.361 73.3732 415.304 68.3988 478.487 63.4055C548.448 57.8764 618.703 52.3241 682 54.7672C726.042 56.467 761.442 65.3131 792.84 73.1588C828.455 82.0585 858.919 89.6709 891 84.105C924.14 78.3553 944.279 68.011 963.261 58.2612C988.383 45.3578 1011.48 33.4954 1060 34.7022C1095.37 35.5818 1112.66 45.834 1131.12 56.7725C1153.41 69.9896 1177.4 84.2085 1237 84.105C1287.03 84.0182 1335.4 71.7061 1383.77 59.3963C1432.62 46.9619 1481.47 34.5298 1532 34.7022C1580.51 34.8677 1614.67 47.295 1648.62 59.6477C1683.51 72.3423 1718.19 84.9581 1768 84.105C1820.33 83.2087 1921 66.0832 1921 66.0832V29.47C1921 29.47 1843.33 55.9073 1791 56.9016C1740.97 57.8521 1706.2 47.3278 1671.15 36.7163C1637.35 26.4834 1603.29 16.1695 1555 15.9867C1504.47 15.7954 1469.01 26.0768 1433.48 36.3795C1398.29 46.5819 1363.03 56.8052 1313 56.9016C1259.54 57.0045 1222.1 42.4853 1184.99 28.093C1146.48 13.1599 1108.33 -1.63662 1053 0.178683C1006.99 1.68811 976.574 15.1312 946.18 28.5638C915.675 42.0453 885.194 55.5163 839 56.9016C804.101 57.9481 775.92 50.4121 747.286 42.7549C722.429 36.1079 697.23 29.3695 667 28.0752C605.086 25.4242 559.498 33.7006 513.396 42.0701C469.801 49.9844 425.749 57.982 367 56.9016C325.487 56.1381 287.469 47.65 249.686 39.2143C207.053 29.6959 164.719 20.2442 118 22.0309C61.2594 24.201 1 56.9016 1 56.9016Z" fill="url(#paint0_linear)"/>
<path opacity="0.1" fill-rule="evenodd" clip-rule="evenodd" d="M1 56.9016V75.5432C1 75.5432 40.2594 68.7017 97 66.7466C144.593 65.1067 172.76 69.3318 202.521 73.7957C227.865 77.5973 254.364 81.5722 295 82.2455C352.249 83.194 417.974 78.2436 484.102 73.2628C557.598 67.727 631.592 62.1538 695 64.5998C725.034 65.7584 755.216 72.4724 785.424 79.1919C820.647 87.0272 855.904 94.8701 891 93.9219C937.165 92.6746 958.365 79.7257 979.59 66.7616C1000.76 53.8282 1021.96 40.8797 1068 39.5189C1123.33 37.8835 1161.48 51.2143 1199.99 64.6682C1237.1 77.6349 1274.54 90.7159 1328 90.6232C1378.14 90.5362 1403.99 78.9974 1429.78 67.4898C1455.71 55.9159 1481.58 44.3736 1532 44.5456C1580.51 44.711 1614.67 57.1317 1648.62 69.4777C1683.51 82.1656 1718.19 94.7745 1768 93.9219C1820.33 93.0261 1921 75.9097 1921 75.9097V29.47C1921 29.47 1843.33 55.9073 1791 56.9016C1740.97 57.8521 1706.2 47.3278 1671.15 36.7163C1637.35 26.4834 1603.29 16.1695 1555 15.9867C1504.47 15.7954 1469.01 26.0768 1433.48 36.3795C1398.29 46.5819 1363.03 56.8052 1313 56.9016C1259.54 57.0045 1222.1 42.4853 1184.99 28.093C1146.48 13.1599 1108.33 -1.63662 1053 0.178683C1006.99 1.68811 976.574 15.1312 946.18 28.5638C915.675 42.0453 885.194 55.5163 839 56.9016C804.101 57.9481 775.92 50.4121 747.286 42.7549C722.429 36.1079 697.23 29.3695 667 28.0752C605.086 25.4242 559.498 33.7006 513.396 42.0701C469.801 49.9844 425.749 57.982 367 56.9016C325.487 56.1381 287.469 47.65 249.686 39.2143C207.053 29.6959 164.719 20.2442 118 22.0309C61.2594 24.201 1 56.9016 1 56.9016Z" fill="url(#paint1_linear)"/>
<path opacity="0.3" fill-rule="evenodd" clip-rule="evenodd" d="M160.41 30.8583C160.42 30.3061 160.876 29.8667 161.428 29.8769C161.766 29.8831 162.102 29.8904 162.438 29.8988C162.99 29.9125 163.426 30.3713 163.413 30.9234C163.399 31.4755 162.94 31.9119 162.388 31.8982C162.057 31.8899 161.724 31.8827 161.391 31.8765C160.839 31.8664 160.4 31.4105 160.41 30.8583ZM154.453 30.8993C154.47 31.4513 154.037 31.913 153.485 31.9305C153.151 31.9411 152.817 31.9527 152.482 31.9654C151.93 31.9863 151.465 31.5559 151.444 31.004C151.424 30.4521 151.854 29.9878 152.406 29.9669C152.745 29.954 153.084 29.9422 153.421 29.9315C153.973 29.914 154.435 30.3473 154.453 30.8993ZM169.362 31.2268C169.404 30.6761 169.885 30.2644 170.436 30.307C170.77 30.3329 171.103 30.3599 171.436 30.3879C171.986 30.4342 172.395 30.9179 172.349 31.4682C172.302 32.0186 171.818 32.4271 171.268 32.3808C170.94 32.3532 170.611 32.3266 170.282 32.301C169.731 32.2584 169.319 31.7774 169.362 31.2268ZM145.502 31.3714C145.548 31.9217 145.14 32.4058 144.59 32.4526C144.489 32.4612 144.389 32.4699 144.288 32.4786C144.221 32.4844 144.154 32.4903 144.088 32.4961C143.924 32.5106 143.76 32.5253 143.596 32.5402C143.046 32.5904 142.559 32.1852 142.509 31.6352C142.459 31.0852 142.864 30.5987 143.414 30.5485C143.58 30.5334 143.746 30.5185 143.912 30.5039C144.082 30.4889 144.251 30.4743 144.42 30.4598C144.971 30.413 145.455 30.8211 145.502 31.3714ZM178.265 32.1261C178.341 31.579 178.846 31.1969 179.393 31.2726C179.723 31.3183 180.052 31.3649 180.38 31.4126C180.926 31.492 181.305 31.9994 181.226 32.546C181.146 33.0925 180.639 33.4712 180.092 33.3918C179.769 33.3448 179.444 33.2988 179.119 33.2537C178.572 33.178 178.19 32.6731 178.265 32.1261ZM136.545 32.3214C136.62 32.8686 136.238 33.3731 135.691 33.4484C135.362 33.4936 135.034 33.5397 134.705 33.5868C134.158 33.6649 133.652 33.2851 133.573 32.7384C133.495 32.1917 133.875 31.6851 134.422 31.6069C134.754 31.5594 135.086 31.5128 135.418 31.4671C135.965 31.3918 136.47 31.7743 136.545 32.3214ZM187.088 33.5582C187.197 33.0167 187.724 32.6655 188.265 32.7739C188.591 32.8391 188.916 32.9052 189.24 32.9723C189.781 33.0842 190.129 33.6134 190.017 34.1542C189.905 34.695 189.376 35.0427 188.835 34.9308C188.515 34.8646 188.194 34.7993 187.873 34.735C187.331 34.6266 186.98 34.0998 187.088 33.5582ZM127.638 33.7103C127.737 34.2535 127.378 34.7746 126.834 34.8743C126.507 34.9344 126.178 34.9953 125.85 35.0571C125.308 35.1592 124.785 34.802 124.683 34.2592C124.58 33.7165 124.938 33.1937 125.48 33.0916C125.812 33.0293 126.143 32.9678 126.474 32.9071C127.017 32.8074 127.538 33.167 127.638 33.7103ZM1646.89 33.4542C1647.22 33.0134 1647.85 32.9258 1648.29 33.2585L1649.08 33.858C1649.52 34.1912 1649.61 34.8183 1649.28 35.2588C1648.94 35.6993 1648.32 35.7862 1647.88 35.4531C1647.61 35.2535 1647.35 35.0541 1647.08 34.8548C1646.64 34.5221 1646.56 33.895 1646.89 33.4542ZM118.8 35.4731C118.921 36.0121 118.581 36.5467 118.042 36.6673C117.719 36.7397 117.395 36.8129 117.071 36.8867C116.532 37.0094 115.996 36.6723 115.874 36.1339C115.751 35.5954 116.088 35.0594 116.626 34.9367C116.953 34.8623 117.279 34.7885 117.606 34.7155C118.145 34.5949 118.679 34.9341 118.8 35.4731ZM937.441 35.1109C937.78 35.5469 937.702 36.1751 937.266 36.5142L936.48 37.1247C936.043 37.4632 935.415 37.3839 935.077 36.9475C934.738 36.5111 934.818 35.883 935.254 35.5445C935.515 35.3416 935.777 35.1386 936.038 34.9355C936.474 34.5964 937.102 34.675 937.441 35.1109ZM195.824 35.5144C195.964 34.9801 196.51 34.6601 197.045 34.7997C197.369 34.8844 197.693 34.97 198.016 35.0566C198.549 35.1995 198.866 35.7479 198.723 36.2813C198.58 36.8148 198.032 37.1314 197.498 36.9885C197.179 36.903 196.859 36.8184 196.539 36.7347C196.005 36.5951 195.685 36.0488 195.824 35.5144ZM110.033 37.5594C110.172 38.0939 109.851 38.6398 109.317 38.7786C108.995 38.8622 108.673 38.9464 108.351 39.0312C107.817 39.1718 107.27 38.8529 107.129 38.3188C106.988 37.7848 107.307 37.2378 107.841 37.0971C108.165 37.0117 108.49 36.9269 108.814 36.8427C109.349 36.704 109.895 37.0248 110.033 37.5594ZM204.437 37.9627C204.606 37.4367 205.168 37.1467 205.694 37.3149C206.012 37.4165 206.329 37.5189 206.645 37.6221C207.17 37.7934 207.457 38.3579 207.286 38.883C207.115 39.408 206.55 39.6948 206.025 39.5235C205.712 39.4215 205.399 39.3203 205.085 39.2198C204.559 39.0515 204.269 38.4887 204.437 37.9627ZM1898.16 38.9275C1898.4 39.426 1898.18 40.0229 1897.69 40.2606L1896.76 40.7025C1896.26 40.9396 1895.66 40.7275 1895.42 40.2287C1895.19 39.7299 1895.4 39.1333 1895.9 38.8962L1896.82 38.4554C1897.32 38.2177 1897.92 38.429 1898.16 38.9275ZM1654.01 38.8641C1654.35 38.425 1654.98 38.3407 1655.42 38.6757L1656.21 39.2795C1656.65 39.6146 1656.73 40.2421 1656.39 40.6811C1656.06 41.1202 1655.43 41.2045 1654.99 40.8695L1654.2 40.2657C1653.76 39.9307 1653.68 39.3031 1654.01 38.8641ZM101.337 39.9287C101.492 40.4588 101.187 41.0141 100.657 41.1689C100.338 41.2622 100.018 41.356 99.6991 41.4502C99.1695 41.6067 98.6133 41.3041 98.4568 40.7745C98.3004 40.2448 98.6029 39.6886 99.1326 39.5322C99.4538 39.4373 99.7752 39.3429 100.097 39.249C100.627 39.0942 101.182 39.3985 101.337 39.9287ZM930.351 40.5689C930.684 41.0096 930.596 41.6367 930.155 41.9695C929.89 42.1696 929.625 42.3694 929.36 42.569C928.919 42.901 928.292 42.8122 927.96 42.3709C927.628 41.9295 927.716 41.3025 928.158 40.9706C928.422 40.7718 928.686 40.5728 928.95 40.3735C929.391 40.0407 930.018 40.1281 930.351 40.5689ZM212.904 40.8528C213.097 40.3355 213.673 40.0731 214.191 40.2667C214.502 40.3833 214.813 40.5006 215.124 40.6186C215.641 40.8147 215.9 41.3922 215.704 41.9085C215.508 42.4248 214.93 42.6844 214.414 42.4883C214.106 42.3714 213.798 42.2553 213.49 42.1398C212.973 41.9463 212.71 41.3701 212.904 40.8528ZM92.7118 42.5475C92.8809 43.0733 92.5916 43.6366 92.0658 43.8056C91.7489 43.9074 91.4321 44.0097 91.1157 44.1125C90.5904 44.2829 90.0263 43.9953 89.8558 43.47C89.6853 42.9447 89.973 42.3806 90.4983 42.2101C90.8165 42.1068 91.135 42.004 91.4538 41.9015C91.9796 41.7325 92.5428 42.0217 92.7118 42.5475ZM1889.99 42.7782C1890.22 43.2793 1890.01 43.8738 1889.51 44.106L1888.59 44.5281C1888.09 44.7596 1887.5 44.5409 1887.27 44.0395C1887.03 43.5381 1887.25 42.9439 1887.75 42.7123C1888.06 42.5715 1888.36 42.4311 1888.66 42.2913C1889.17 42.0591 1889.76 42.2771 1889.99 42.7782ZM615.592 43.3031C615.593 42.7508 616.042 42.3041 616.594 42.3053C616.922 42.306 617.25 42.3074 617.579 42.3094C618.131 42.3127 618.576 42.7632 618.573 43.3154C618.569 43.8677 618.119 44.3127 617.566 44.3094C617.241 44.3074 616.915 44.306 616.59 44.3053C616.038 44.3041 615.591 43.8554 615.592 43.3031ZM609.657 43.3824C609.673 43.9345 609.239 44.3949 608.687 44.4109C608.36 44.4203 608.034 44.4304 607.709 44.441C607.157 44.4591 606.695 44.0263 606.677 43.4743C606.658 42.9223 607.091 42.4602 607.643 42.4421C607.971 42.4314 608.3 42.4212 608.629 42.4117C609.181 42.3958 609.641 42.8303 609.657 43.3824ZM624.5 43.4437C624.521 42.8918 624.985 42.4611 625.537 42.4816C625.704 42.4878 625.872 42.4942 626.039 42.5008C626.175 42.5061 626.31 42.5115 626.445 42.517L626.558 42.5217C627.11 42.5445 627.539 43.0103 627.516 43.5621C627.493 44.1139 627.027 44.5428 626.475 44.52C626.304 44.5129 626.133 44.506 625.961 44.4992C625.795 44.4927 625.628 44.4864 625.462 44.4802C624.91 44.4597 624.48 43.9956 624.5 43.4437ZM600.752 43.76C600.787 44.3112 600.369 44.7864 599.818 44.8215C599.491 44.8422 599.165 44.8636 598.84 44.8855C598.289 44.9227 597.812 44.5061 597.775 43.955C597.738 43.404 598.154 42.9272 598.705 42.8901C599.033 42.8679 599.362 42.8464 599.691 42.8255C600.242 42.7905 600.717 43.2088 600.752 43.76ZM633.677 43.9234C633.719 43.3727 634.199 42.9602 634.75 43.0021C635.094 43.0283 635.437 43.0551 635.779 43.0827C636.33 43.127 636.74 43.6092 636.696 44.1597C636.652 44.7102 636.169 45.1205 635.619 45.0762C635.279 45.0489 634.939 45.0223 634.598 44.9964C634.048 44.9545 633.635 44.4741 633.677 43.9234ZM221.235 44.1296C221.449 43.6208 222.036 43.3824 222.545 43.5971C222.852 43.7267 223.159 43.8569 223.465 43.9877C223.973 44.2045 224.209 44.7921 223.992 45.3C223.775 45.808 223.187 46.0439 222.68 45.8271C222.376 45.6974 222.072 45.5682 221.767 45.4397C221.258 45.225 221.02 44.6384 221.235 44.1296ZM591.866 44.4431C591.92 44.9928 591.518 45.4819 590.968 45.5355C590.642 45.5674 590.317 45.5997 589.992 45.6327C589.443 45.6884 588.952 45.2881 588.896 44.7386C588.841 44.1892 589.241 43.6986 589.79 43.6429C590.118 43.6097 590.446 43.5771 590.774 43.545C591.323 43.4913 591.813 43.8934 591.866 44.4431ZM642.834 44.7609C642.897 44.2123 643.393 43.8189 643.942 43.8822C644.084 43.8986 644.225 43.9151 644.367 43.9317C644.565 43.9549 644.763 43.9784 644.96 44.0021C645.509 44.0678 645.9 44.5656 645.834 45.114C645.769 45.6623 645.271 46.0536 644.722 45.9879C644.386 45.9476 644.05 45.908 643.712 45.869C643.164 45.8057 642.77 45.3096 642.834 44.7609ZM1661.13 44.2876C1661.47 43.8472 1662.09 43.7603 1662.53 44.0936L1663.33 44.6925C1663.77 45.0253 1663.85 45.6524 1663.52 46.0931C1663.19 46.5339 1662.56 46.6214 1662.12 46.2886L1661.33 45.6885C1660.89 45.3552 1660.8 44.728 1661.13 44.2876ZM583.009 45.4225C583.08 45.9701 582.694 46.4721 582.147 46.5437C581.927 46.5725 581.706 46.6015 581.487 46.6308L581.174 46.6727C580.626 46.7462 580.123 46.3621 580.049 45.8147C579.976 45.2673 580.36 44.764 580.907 44.6905L581.231 44.6472C581.45 44.6181 581.669 44.5892 581.887 44.5606C582.435 44.489 582.937 44.8749 583.009 45.4225ZM84.1605 45.3876C84.3422 45.9091 84.0668 46.4793 83.5452 46.661C83.2317 46.7703 82.9185 46.8799 82.6056 46.9898C82.0845 47.1729 81.5137 46.8989 81.3306 46.3778C81.1476 45.8568 81.4215 45.286 81.9426 45.1029C82.2571 44.9924 82.5719 44.8822 82.8871 44.7724C83.4086 44.5907 83.9787 44.8661 84.1605 45.3876ZM651.938 45.9518C652.022 45.406 652.533 45.032 653.079 45.1163C653.415 45.1683 653.751 45.2209 654.086 45.2741C654.631 45.3607 655.003 45.8731 654.917 46.4186C654.83 46.964 654.317 47.336 653.772 47.2493C653.44 47.1966 653.107 47.1444 652.774 47.0929C652.228 47.0085 651.854 46.4976 651.938 45.9518ZM923.17 45.9074C923.494 46.3549 923.393 46.9801 922.946 47.3037C922.677 47.4984 922.407 47.6928 922.137 47.8869C921.689 48.2093 921.064 48.1072 920.742 47.6589C920.419 47.2105 920.521 46.5856 920.97 46.2631C921.238 46.0702 921.506 45.8768 921.774 45.6831C922.221 45.3595 922.847 45.4599 923.17 45.9074ZM574.187 46.6853C574.276 47.2304 573.906 47.7441 573.361 47.8327C573.037 47.8852 572.714 47.9383 572.391 47.9918C571.846 48.0822 571.331 47.7137 571.241 47.1689C571.151 46.6241 571.519 46.1091 572.064 46.0188C572.389 45.9649 572.714 45.9114 573.04 45.8586C573.585 45.77 574.099 46.1401 574.187 46.6853ZM1881.75 46.5527C1881.98 47.0564 1881.75 47.6483 1881.25 47.8748L1880.35 48.2796C1879.84 48.5055 1879.25 48.28 1879.03 47.776C1878.8 47.272 1879.03 46.6804 1879.53 46.4545L1880.43 46.0507C1880.93 45.8242 1881.53 46.049 1881.75 46.5527ZM660.981 47.4849C661.086 46.9426 661.61 46.5876 662.152 46.6921C662.49 46.7572 662.828 46.8229 663.165 46.8892C663.707 46.9958 664.06 47.5215 663.953 48.0634C663.847 48.6053 663.321 48.9582 662.779 48.8516C662.445 48.7858 662.11 48.7206 661.774 48.656C661.232 48.5516 660.877 48.0273 660.981 47.4849ZM229.434 47.7225C229.665 47.221 230.259 47.0023 230.761 47.2338C231.063 47.3733 231.364 47.5132 231.666 47.6535C232.166 47.8866 232.383 48.4815 232.15 48.9821C231.917 49.4828 231.322 49.6997 230.822 49.4666C230.522 49.3271 230.222 49.1881 229.922 49.0496C229.421 48.818 229.202 48.2238 229.434 47.7225ZM565.408 48.2147C565.513 48.757 565.158 49.2813 564.615 49.3856C564.387 49.4296 564.158 49.4738 563.93 49.5183L563.65 49.5728C563.108 49.6789 562.583 49.3254 562.477 48.7834C562.371 48.2414 562.724 47.716 563.266 47.61C563.428 47.5783 563.59 47.5468 563.753 47.5153C563.914 47.484 564.076 47.4527 564.237 47.4216C564.78 47.3173 565.304 47.6723 565.408 48.2147ZM75.6742 48.4291C75.8675 48.9464 75.6047 49.5225 75.0874 49.7158C74.7744 49.8328 74.4618 49.9499 74.1498 50.0674C73.6329 50.2619 73.0562 50.0005 72.8617 49.4836C72.6672 48.9667 72.9285 48.39 73.4454 48.1955C73.7589 48.0775 74.073 47.9598 74.3874 47.8423C74.9048 47.649 75.4809 47.9117 75.6742 48.4291ZM669.988 49.3482C670.111 48.8098 670.647 48.4731 671.186 48.5962C671.519 48.6724 671.852 48.7492 672.184 48.8264C672.722 48.9515 673.057 49.4889 672.932 50.0269C672.807 50.5648 672.27 50.8995 671.732 50.7745C671.402 50.6978 671.071 50.6216 670.74 50.5459C670.202 50.4228 669.865 49.8865 669.988 49.3482ZM556.676 49.9907C556.795 50.53 556.454 51.0636 555.914 51.1823C555.742 51.2203 555.57 51.2583 555.398 51.2965C555.249 51.3294 555.101 51.3624 554.952 51.3956C554.413 51.5159 553.879 51.1764 553.759 50.6374C553.638 50.0984 553.978 49.5639 554.517 49.4436C554.839 49.3717 555.161 49.3002 555.484 49.2291C556.023 49.1104 556.557 49.4513 556.676 49.9907ZM1668.29 49.6543C1668.62 49.2094 1669.25 49.1139 1669.69 49.4411C1669.96 49.6369 1670.22 49.8324 1670.49 50.0275C1670.93 50.3537 1671.03 50.9794 1670.71 51.4251C1670.38 51.8707 1669.75 51.9674 1669.31 51.6412L1668.51 51.0523C1668.06 50.7251 1667.97 50.0992 1668.29 49.6543ZM1873.53 50.2073C1873.75 50.7136 1873.51 51.3029 1873.01 51.5235C1872.7 51.6571 1872.39 51.7908 1872.09 51.9246C1871.58 52.1446 1870.99 51.9122 1870.77 51.4056C1870.55 50.899 1870.78 50.31 1871.29 50.0901C1871.6 49.9566 1871.9 49.8232 1872.21 49.69C1872.72 49.4694 1873.3 49.701 1873.53 50.2073ZM915.869 51.0784C916.18 51.5345 916.063 52.1567 915.607 52.4682C915.332 52.6557 915.057 52.8428 914.782 53.0295C914.325 53.3394 913.703 53.2201 913.393 52.763C913.083 52.3058 913.202 51.684 913.659 51.3741C913.933 51.1887 914.206 51.0029 914.479 50.8166C914.935 50.5051 915.557 50.6223 915.869 51.0784ZM678.913 51.5059C679.052 50.9716 679.599 50.6518 680.133 50.7915C680.376 50.855 680.618 50.9187 680.86 50.9826L681.118 51.0509C681.652 51.1923 681.97 51.7397 681.829 52.2736C681.688 52.8075 681.14 53.1256 680.606 52.9842C680.28 52.8978 679.954 52.8119 679.627 52.7264C679.093 52.5867 678.773 52.0403 678.913 51.5059ZM237.522 51.5585C237.765 51.0629 238.365 50.8587 238.86 51.1025C239.158 51.2491 239.456 51.396 239.754 51.5433C240.249 51.7881 240.452 52.3879 240.207 52.8829C239.962 53.378 239.363 53.5809 238.867 53.336C238.694 53.2505 238.521 53.165 238.348 53.0797C238.225 53.0188 238.101 52.9579 237.978 52.8971C237.482 52.6534 237.278 52.054 237.522 51.5585ZM67.2558 51.6521C67.4597 52.1654 67.2088 52.7467 66.6955 52.9506C66.387 53.0731 66.0791 53.1957 65.7718 53.3185C65.259 53.5235 64.6771 53.2739 64.4721 52.761C64.2672 52.2482 64.5168 51.6663 65.0296 51.4613C65.3383 51.338 65.6475 51.2148 65.9574 51.0918C66.4707 50.8879 67.052 51.1388 67.2558 51.6521ZM547.992 51.9902C548.123 52.5265 547.795 53.0681 547.259 53.1997C546.939 53.2783 546.619 53.3573 546.299 53.4367C545.763 53.5697 545.221 53.243 545.088 52.7069C544.955 52.1709 545.281 51.6285 545.817 51.4955C546.139 51.4158 546.46 51.3364 546.782 51.2574C547.318 51.1257 547.86 51.4538 547.992 51.9902ZM1252.72 52.1362C1252.93 51.6245 1253.52 51.3781 1254.03 51.5859C1254.33 51.7097 1254.64 51.8326 1254.94 51.9549C1255.46 52.1599 1255.71 52.7419 1255.5 53.2547C1255.29 53.7675 1254.71 54.017 1254.2 53.8119C1253.89 53.6883 1253.58 53.564 1253.27 53.4389C1252.76 53.2311 1252.52 52.6479 1252.72 52.1362ZM1377.58 53.3815C1377.77 53.9009 1377.5 54.4741 1376.98 54.6619C1376.67 54.7751 1376.35 54.8876 1376.04 54.9995C1375.52 55.1849 1374.95 54.9135 1374.76 54.3933C1374.58 53.8731 1374.85 53.3011 1375.37 53.1156C1375.56 53.0477 1375.75 52.9795 1375.94 52.9111L1376.3 52.781C1376.82 52.5933 1377.39 52.8621 1377.58 53.3815ZM1865.22 53.7799C1865.43 54.2889 1865.19 54.8753 1864.69 55.0897C1864.37 55.2208 1864.06 55.352 1863.75 55.4832C1863.24 55.6968 1862.65 55.4571 1862.44 54.9478C1862.23 54.4385 1862.47 53.8525 1862.98 53.6388C1863.29 53.508 1863.6 53.3772 1863.91 53.2464C1864.42 53.0321 1865 53.2709 1865.22 53.7799ZM687.773 53.9259C687.927 53.3955 688.481 53.0903 689.012 53.2442C689.34 53.3396 689.669 53.4353 689.996 53.5314C690.526 53.6867 690.83 54.2423 690.675 54.7723C690.519 55.3023 689.964 55.606 689.434 55.4507C689.108 55.3551 688.781 55.2598 688.454 55.1649C687.924 55.011 687.619 54.4563 687.773 53.9259ZM539.354 54.1879C539.497 54.7214 539.18 55.2697 538.647 55.4126C538.487 55.4556 538.326 55.4987 538.166 55.5419C538.007 55.5845 537.849 55.6272 537.691 55.6699C537.158 55.814 536.609 55.4986 536.464 54.9654C536.32 54.4323 536.636 53.8832 537.169 53.7392C537.489 53.6527 537.809 53.5666 538.129 53.4808C538.663 53.3378 539.211 53.6544 539.354 54.1879ZM58.9074 55.0401C59.121 55.5494 58.8813 56.1354 58.3719 56.349C58.0623 56.4788 57.7535 56.6087 57.4454 56.7386C56.9365 56.9532 56.35 56.7147 56.1354 56.2058C55.9208 55.6969 56.1593 55.1104 56.6682 54.8958C56.9776 54.7653 57.2877 54.6349 57.5985 54.5046C58.1079 54.291 58.6939 54.5308 58.9074 55.0401ZM1675.54 54.8944C1675.86 54.4419 1676.48 54.3318 1676.94 54.6485C1677.21 54.8382 1677.48 55.0274 1677.75 55.216C1678.2 55.5312 1678.31 56.1544 1678 56.6079C1677.68 57.0614 1677.06 57.1735 1676.61 56.8583C1676.33 56.6684 1676.06 56.478 1675.79 56.2871C1675.34 55.9704 1675.23 55.3469 1675.54 54.8944ZM1261.04 55.3294C1261.22 54.8079 1261.79 54.5327 1262.31 54.7147C1262.62 54.8233 1262.93 54.931 1263.25 55.0379C1263.77 55.2168 1264.05 55.7855 1263.87 56.308C1263.69 56.8304 1263.12 57.1089 1262.6 56.9299C1262.28 56.8218 1261.97 56.7128 1261.65 56.603C1261.13 56.421 1260.86 55.8508 1261.04 55.3294ZM245.527 55.5631C245.778 55.0713 246.381 54.8764 246.873 55.1278C247.168 55.2788 247.464 55.4301 247.759 55.5815C248.251 55.8334 248.445 56.4361 248.193 56.9275C247.941 57.419 247.338 57.6132 246.847 57.3613C246.552 57.2102 246.257 57.0593 245.962 56.9086C245.471 56.6573 245.276 56.0549 245.527 55.5631ZM908.418 56.0324C908.714 56.4986 908.577 57.1166 908.11 57.4128C907.829 57.5913 907.548 57.7693 907.266 57.9467C906.799 58.241 906.181 58.1007 905.887 57.6334C905.593 57.166 905.733 56.5486 906.201 56.2543C906.48 56.0783 906.759 55.9017 907.038 55.7247C907.504 55.4285 908.122 55.5663 908.418 56.0324ZM1369.13 56.2846C1369.3 56.8114 1369 57.3729 1368.48 57.5387C1368.16 57.6388 1367.84 57.7382 1367.52 57.8369C1366.99 58.0001 1366.43 57.7046 1366.27 57.177C1366.11 56.6494 1366.4 56.0894 1366.93 55.9262C1367.25 55.8285 1367.56 55.7301 1367.88 55.631C1368.4 55.4651 1368.97 55.7578 1369.13 56.2846ZM530.76 56.5566C530.913 57.0874 530.606 57.6413 530.075 57.7937C529.758 57.8848 529.441 57.9761 529.124 58.0677C528.593 58.2211 528.039 57.9153 527.885 57.3847C527.732 56.8541 528.038 56.2997 528.569 56.1464C528.887 56.0544 529.205 55.9628 529.523 55.8714C530.054 55.719 530.608 56.0258 530.76 56.5566ZM696.573 56.5643C696.738 56.0374 697.3 55.7441 697.827 55.9093C698.151 56.0111 698.476 56.1132 698.8 56.2156C699.327 56.3819 699.619 56.9436 699.453 57.4703C699.286 57.9969 698.725 58.2891 698.198 58.1228C697.875 58.0208 697.552 57.9191 697.228 57.8177C696.701 57.6525 696.408 57.0913 696.573 56.5643ZM1856.88 57.2422C1857.09 57.754 1856.84 58.3371 1856.33 58.5448C1856.02 58.67 1855.71 58.7951 1855.4 58.9202C1854.89 59.1271 1854.31 58.8796 1854.1 58.3676C1853.89 57.8555 1854.14 57.2727 1854.65 57.0658C1854.96 56.9411 1855.27 56.8163 1855.58 56.6915C1856.09 56.4839 1856.67 56.7304 1856.88 57.2422ZM1269.51 58.0929C1269.66 57.5626 1270.22 57.2576 1270.75 57.4117C1271.06 57.5037 1271.38 57.595 1271.7 57.6853C1272.23 57.8362 1272.54 58.3892 1272.39 58.9205C1272.24 59.4518 1271.68 59.7601 1271.15 59.6093C1270.83 59.5178 1270.51 59.4254 1270.19 59.3322C1269.66 59.1781 1269.35 58.6233 1269.51 58.0929ZM50.6165 58.5855C50.8392 59.0909 50.6099 59.6811 50.1045 59.9038C49.8016 60.0372 49.4997 60.1706 49.1987 60.3038C48.6937 60.5274 48.103 60.2993 47.8794 59.7944C47.6558 59.2894 47.8839 58.6987 48.3889 58.4751C48.6911 58.3413 48.9942 58.2074 49.2982 58.0735C49.8036 57.8508 50.3939 58.0801 50.6165 58.5855ZM1360.56 58.8162C1360.7 59.3501 1360.39 59.8975 1359.85 60.0387C1359.53 60.124 1359.21 60.2085 1358.88 60.2921C1358.35 60.4305 1357.8 60.1093 1357.67 59.5746C1357.53 59.0399 1357.85 58.4943 1358.38 58.3559C1358.7 58.2732 1359.02 58.1896 1359.34 58.1053C1359.87 57.964 1360.42 58.2823 1360.56 58.8162ZM522.207 59.0666C522.367 59.5952 522.069 60.1535 521.54 60.3135C521.224 60.4091 520.908 60.505 520.593 60.601C520.065 60.7617 519.506 60.4638 519.345 59.9354C519.184 59.407 519.482 58.8484 520.011 58.6876C520.327 58.5913 520.644 58.4952 520.96 58.3993C521.489 58.2393 522.047 58.5381 522.207 59.0666ZM705.317 59.3681C705.49 58.8437 706.055 58.559 706.58 58.7323C706.904 58.8394 707.228 58.9467 707.552 59.0542C708.076 59.2281 708.36 59.794 708.186 60.3182C708.012 60.8424 707.446 61.1263 706.922 60.9524C706.599 60.8452 706.276 60.7382 705.953 60.6313C705.428 60.4581 705.143 59.8925 705.317 59.3681ZM253.486 59.663C253.74 59.1728 254.344 58.9817 254.834 59.2362L255.718 59.6951C256.208 59.9496 256.399 60.5533 256.145 61.0434C255.89 61.5336 255.286 61.7246 254.796 61.4701L253.913 61.0113C253.422 60.7568 253.231 60.1532 253.486 59.663ZM1682.94 59.9358C1683.24 59.4729 1683.86 59.342 1684.32 59.6433L1684.65 59.8575C1684.82 59.9658 1684.98 60.0738 1685.15 60.1815C1685.61 60.4808 1685.75 61.0997 1685.45 61.5639C1685.15 62.0281 1684.53 62.1617 1684.07 61.8624C1683.79 61.6821 1683.51 61.5011 1683.23 61.3194C1682.77 61.0181 1682.64 60.3986 1682.94 59.9358ZM1278.11 60.3969C1278.24 59.8589 1278.77 59.5238 1279.31 59.6486C1279.63 59.7226 1279.95 59.7958 1280.27 59.868C1280.81 59.9894 1281.15 60.5246 1281.03 61.0634C1280.91 61.6022 1280.37 61.9405 1279.83 61.8191C1279.51 61.7459 1279.18 61.6719 1278.86 61.5969C1278.32 61.4722 1277.99 60.9349 1278.11 60.3969ZM1848.5 60.59C1848.7 61.1047 1848.44 61.6843 1847.93 61.8846C1847.62 62.0062 1847.3 62.1275 1846.99 62.2488C1846.48 62.4483 1845.9 62.1925 1845.7 61.6775C1845.5 61.1625 1845.75 60.5833 1846.27 60.3838C1846.58 60.263 1846.89 60.142 1847.2 60.0209C1847.72 59.8205 1848.3 60.0753 1848.5 60.59ZM1351.88 60.9369C1352 61.4772 1351.65 62.008 1351.11 62.1226C1350.79 62.1913 1350.46 62.2591 1350.14 62.3261C1349.6 62.4376 1349.07 62.0895 1348.96 61.5486C1348.85 61.0077 1349.19 60.4788 1349.74 60.3673C1350.06 60.3011 1350.38 60.234 1350.7 60.1661C1351.24 60.0515 1351.77 60.3966 1351.88 60.9369ZM900.797 60.719C901.074 61.1964 900.913 61.8085 900.435 62.0862C900.147 62.2538 899.858 62.4209 899.569 62.5873C899.091 62.8628 898.479 62.698 898.204 62.2194C897.928 61.7407 898.093 61.1293 898.572 60.8538C898.858 60.689 899.144 60.5236 899.429 60.3575C899.907 60.0798 900.519 60.2416 900.797 60.719ZM513.688 61.688C513.854 62.2148 513.561 62.7762 513.034 62.942C512.72 63.041 512.405 63.1402 512.09 63.2396C511.564 63.4058 511.002 63.1137 510.836 62.5871C510.669 62.0604 510.962 61.4987 511.488 61.3324C511.803 61.2328 512.119 61.1335 512.434 61.0342C512.961 60.8684 513.522 61.1611 513.688 61.688ZM1286.83 62.2213C1286.93 61.6771 1287.44 61.3127 1287.99 61.4073C1288.31 61.4631 1288.63 61.5179 1288.95 61.5719C1289.5 61.6631 1289.87 62.1786 1289.77 62.7233C1289.68 63.268 1289.17 63.6356 1288.62 63.5444C1288.3 63.4898 1287.97 63.4342 1287.65 63.3777C1287.1 63.2832 1286.74 62.7654 1286.83 62.2213ZM714.03 62.2848C714.208 61.7619 714.776 61.4821 715.299 61.6598L716.265 61.9884C716.787 62.1664 717.067 62.7345 716.889 63.2574C716.711 63.7802 716.143 64.0597 715.62 63.8817L714.655 63.5534C714.132 63.3757 713.852 62.8077 714.03 62.2848ZM42.3894 62.2756C42.6206 62.7771 42.4015 63.3712 41.8999 63.6024C41.5954 63.7428 41.2921 63.8829 40.9901 64.0229C40.489 64.255 39.8945 64.037 39.6624 63.5359C39.4302 63.0347 39.6483 62.4403 40.1494 62.2081C40.4525 62.0677 40.757 61.927 41.0626 61.7861C41.5641 61.5549 42.1582 61.7741 42.3894 62.2756ZM1343.11 62.6141C1343.19 63.1596 1342.82 63.6717 1342.28 63.7579C1341.95 63.8094 1341.63 63.8599 1341.3 63.9095C1340.75 63.9925 1340.24 63.6172 1340.16 63.0712C1340.08 62.5252 1340.45 62.0153 1341 61.9322C1341.32 61.8832 1341.64 61.8333 1341.96 61.7824C1342.51 61.6962 1343.02 62.0686 1343.11 62.6141ZM1295.64 63.5572C1295.7 63.0087 1296.2 62.6161 1296.75 62.6804C1296.93 62.7024 1297.12 62.724 1297.31 62.7453C1297.45 62.7608 1297.58 62.7761 1297.72 62.7912C1298.27 62.8522 1298.66 63.3466 1298.6 63.8955C1298.54 64.4444 1298.05 64.84 1297.5 64.779C1297.34 64.7613 1297.18 64.7433 1297.02 64.7252C1296.85 64.706 1296.68 64.6865 1296.51 64.6668C1295.97 64.6025 1295.57 64.1057 1295.64 63.5572ZM1334.26 63.8248C1334.32 64.3742 1333.92 64.8656 1333.37 64.9224C1333.22 64.9374 1333.08 64.9521 1332.94 64.9667C1332.75 64.9851 1332.57 65.0033 1332.39 65.0212C1331.84 65.0748 1331.35 64.6726 1331.29 64.1229C1331.24 63.5732 1331.64 63.0842 1332.19 63.0306C1332.52 62.999 1332.84 62.9665 1333.16 62.933C1333.71 62.8762 1334.2 63.2755 1334.26 63.8248ZM1840.06 63.8173C1840.25 64.335 1839.99 64.9106 1839.47 65.1029C1839.16 65.2199 1838.84 65.3366 1838.53 65.4531C1838.01 65.6445 1837.43 65.3797 1837.24 64.8616C1837.05 64.3435 1837.31 63.7684 1837.83 63.577C1838.15 63.4609 1838.46 63.3446 1838.77 63.2281C1839.29 63.0358 1839.87 63.2995 1840.06 63.8173ZM261.433 63.7852C261.686 63.2943 262.289 63.1016 262.78 63.3547C263.074 63.5063 263.368 63.6578 263.662 63.8092C264.154 64.062 264.347 64.6649 264.094 65.156C263.841 65.6471 263.238 65.8403 262.747 65.5876C262.452 65.4359 262.158 65.2841 261.863 65.1323C261.373 64.8792 261.18 64.2761 261.433 63.7852ZM1304.5 64.4068C1304.53 63.8556 1305.01 63.4367 1305.56 63.4713C1305.73 63.4817 1305.89 63.4919 1306.06 63.5018C1306.23 63.5118 1306.39 63.5215 1306.56 63.5309C1307.11 63.5622 1307.53 64.0346 1307.5 64.586C1307.47 65.1374 1307 65.559 1306.45 65.5277C1306.28 65.5181 1306.11 65.5083 1305.94 65.4982C1305.77 65.4882 1305.6 65.4779 1305.44 65.4674C1304.88 65.4328 1304.47 64.958 1304.5 64.4068ZM1325.36 64.5572C1325.39 65.1088 1324.96 65.5779 1324.41 65.605C1324.08 65.6211 1323.75 65.6362 1323.42 65.6504C1322.87 65.6742 1322.4 65.2462 1322.38 64.6944C1322.36 64.1426 1322.79 63.676 1323.34 63.6522C1323.66 63.6382 1323.99 63.6233 1324.31 63.6074C1324.86 63.5803 1325.33 64.0056 1325.36 64.5572ZM505.194 64.3896C505.364 64.9153 505.075 65.4788 504.55 65.6484L503.608 65.9526C503.082 66.1225 502.519 65.8342 502.349 65.3087C502.179 64.7831 502.467 64.2194 502.993 64.0496L503.936 63.745C504.461 63.5754 505.025 63.864 505.194 64.3896ZM1313.45 64.7863C1313.45 64.234 1313.91 63.791 1314.46 63.7967C1314.78 63.8 1315.11 63.8025 1315.43 63.8039C1315.98 63.8065 1316.43 64.2562 1316.43 64.8085C1316.42 65.3608 1315.97 65.8064 1315.42 65.8039C1315.2 65.8029 1314.98 65.8015 1314.76 65.7996L1314.44 65.7966C1313.88 65.7909 1313.44 65.3385 1313.45 64.7863ZM1690.51 64.695C1690.79 64.2195 1691.41 64.0616 1691.88 64.3424C1692.16 64.5099 1692.45 64.6767 1692.73 64.8426C1693.21 65.1208 1693.37 65.7331 1693.09 66.2102C1692.82 66.6873 1692.2 66.8486 1691.73 66.5704L1691.35 66.3518C1691.19 66.2563 1691.03 66.1606 1690.86 66.0646C1690.39 65.7838 1690.23 65.1706 1690.51 64.695ZM892.988 65.0874C893.244 65.5767 893.055 66.181 892.566 66.4372C892.27 66.592 891.974 66.7462 891.677 66.8997C891.186 67.1533 890.583 66.9612 890.329 66.4705C890.076 65.9799 890.268 65.3766 890.758 65.123C891.052 64.9712 891.345 64.8186 891.638 64.6653C892.127 64.4092 892.732 64.5981 892.988 65.0874ZM722.722 65.2502C722.9 64.7275 723.468 64.4485 723.991 64.6269L724.958 64.9568C725.48 65.1351 725.76 65.7034 725.581 66.2261C725.403 66.7488 724.835 67.028 724.312 66.8497L723.345 66.5197C722.822 66.3412 722.543 65.7728 722.722 65.2502ZM34.2461 66.0934C34.4855 66.5911 34.2761 67.1886 33.7785 67.428C33.4714 67.5757 33.1661 67.723 32.8624 67.8698C32.3651 68.1101 31.7672 67.9018 31.5269 67.4046C31.2865 66.9073 31.4948 66.3094 31.992 66.0691C32.2968 65.9218 32.6033 65.774 32.9114 65.6257C33.4091 65.3863 34.0066 65.5957 34.2461 66.0934ZM1831.57 66.9073C1831.76 67.4282 1831.48 67.9992 1830.96 68.1826C1830.73 68.2651 1830.49 68.3473 1830.26 68.4294L1830.01 68.5154C1829.49 68.6977 1828.92 68.423 1828.74 67.9017C1828.56 67.3804 1828.83 66.8099 1829.35 66.6276C1829.67 66.5174 1829.98 66.4069 1830.3 66.2962C1830.82 66.1127 1831.39 66.3864 1831.57 66.9073ZM496.717 67.1403C496.888 67.6654 496.602 68.2299 496.077 68.4013L495.135 68.7087C494.61 68.8802 494.046 68.5937 493.874 68.0687C493.703 67.5437 493.989 66.9791 494.514 66.8076L495.456 66.5001C495.981 66.3287 496.545 66.6153 496.717 67.1403ZM269.402 67.8577C269.65 67.364 270.251 67.1645 270.745 67.412C271.041 67.5604 271.337 67.7086 271.633 67.8565C272.127 68.1032 272.328 68.7038 272.081 69.1979C271.834 69.692 271.234 69.8926 270.74 69.646C270.442 69.4975 270.145 69.3487 269.848 69.1999C269.354 68.9523 269.155 68.3514 269.402 67.8577ZM731.421 68.2036C731.596 67.6799 732.163 67.3974 732.687 67.5727C733.009 67.6805 733.331 67.7882 733.653 67.8957C734.177 68.0704 734.46 68.6367 734.286 69.1606C734.111 69.6846 733.545 69.9677 733.021 69.793C732.698 69.6853 732.375 69.5774 732.052 69.4693C731.528 69.294 731.246 68.7273 731.421 68.2036ZM884.984 69.0883C885.215 69.5896 884.997 70.1839 884.495 70.4156C884.192 70.5559 883.888 70.6955 883.583 70.8342C883.08 71.063 882.487 70.841 882.258 70.3383C882.03 69.8357 882.252 69.2427 882.754 69.0139C883.056 68.8767 883.356 68.7388 883.656 68.6001C884.158 68.3684 884.752 68.587 884.984 69.0883ZM1698.3 69.0884C1698.56 68.5984 1699.16 68.4079 1699.65 68.6628C1699.95 68.8146 1700.24 68.9654 1700.53 69.1153C1701.02 69.367 1701.22 69.9695 1700.96 70.4611C1700.71 70.9527 1700.11 71.1472 1699.62 70.8955C1699.32 70.7436 1699.03 70.5908 1698.73 70.437C1698.24 70.1821 1698.05 69.5783 1698.3 69.0884ZM1823.03 69.8442C1823.21 70.3686 1822.92 70.9342 1822.4 71.1076C1822.08 71.2129 1821.76 71.3178 1821.44 71.4223C1820.92 71.5945 1820.35 71.3087 1820.18 70.784C1820.01 70.2592 1820.29 69.6942 1820.82 69.522C1821.14 69.418 1821.45 69.3136 1821.77 69.2088C1822.3 69.0354 1822.86 69.3199 1823.03 69.8442ZM488.245 69.9084C488.416 70.4335 488.129 70.9979 487.604 71.1692L486.662 71.4763C486.137 71.6475 485.573 71.3605 485.402 70.8354C485.231 70.3103 485.518 69.7459 486.043 69.5748L486.984 69.2678C487.509 69.0966 488.074 69.3834 488.245 69.9084ZM26.1503 70.0512C26.3978 70.5449 26.1981 71.1458 25.7044 71.3933C25.4005 71.5456 25.099 71.6971 24.7998 71.8477C24.3065 72.0961 23.7052 71.8976 23.4569 71.4043C23.2085 70.911 23.407 70.3098 23.9003 70.0614C24.2006 69.9102 24.5032 69.7582 24.8082 69.6053C25.302 69.3578 25.9028 69.5575 26.1503 70.0512ZM740.145 71.0782C740.313 70.5521 740.876 70.262 741.402 70.4301C741.725 70.5335 742.049 70.6365 742.372 70.7392C742.899 70.9064 743.19 71.4686 743.023 71.995C742.856 72.5213 742.293 72.8126 741.767 72.6454C741.442 72.5423 741.118 72.4389 740.793 72.3352C740.267 72.167 739.977 71.6042 740.145 71.0782ZM277.435 71.8162C277.673 71.3177 278.27 71.1065 278.768 71.3444C278.865 71.3906 278.962 71.4367 279.058 71.4828C279.261 71.5793 279.464 71.6757 279.667 71.7719C280.166 72.0084 280.379 72.6048 280.142 73.1038C279.906 73.6029 279.309 73.8157 278.81 73.5791C278.509 73.4362 278.207 73.2929 277.907 73.1494C277.408 72.9115 277.197 72.3146 277.435 71.8162ZM1814.44 72.609C1814.6 73.1371 1814.3 73.6964 1813.77 73.8583C1813.45 73.9566 1813.13 74.0543 1812.81 74.1516C1812.28 74.3122 1811.73 74.014 1811.57 73.4856C1811.41 72.9572 1811.7 72.3986 1812.23 72.238C1812.55 72.1413 1812.87 72.044 1813.19 71.9463C1813.72 71.7843 1814.27 72.081 1814.44 72.609ZM479.768 72.662C479.937 73.1877 479.648 73.7511 479.123 73.9202C478.808 74.0214 478.494 74.1225 478.179 74.2235C477.653 74.3923 477.09 74.1029 476.921 73.5771C476.752 73.0512 477.042 72.4881 477.568 72.3193C477.882 72.2184 478.196 72.1174 478.51 72.0164C479.036 71.8472 479.599 72.1362 479.768 72.662ZM876.785 72.6759C876.989 73.1889 876.739 73.7706 876.226 73.9752C875.917 74.0985 875.608 74.2209 875.297 74.3424C874.783 74.5439 874.203 74.2903 874.001 73.7761C873.8 73.2618 874.054 72.6816 874.568 72.4802C874.874 72.3601 875.18 72.2392 875.485 72.1175C875.998 71.9129 876.58 72.163 876.785 72.6759ZM1706.33 73.027C1706.56 72.522 1707.15 72.294 1707.65 72.5176C1707.95 72.6507 1708.25 72.7828 1708.56 72.9138C1709.06 73.1337 1709.3 73.7226 1709.08 74.2293C1708.86 74.7359 1708.27 74.9684 1707.76 74.7485C1707.45 74.6155 1707.15 74.4814 1706.84 74.3463C1706.34 74.1226 1706.11 73.532 1706.33 73.027ZM748.914 73.8084C749.071 73.279 749.628 72.9771 750.157 73.1343C750.483 73.2309 750.808 73.327 751.134 73.4227C751.664 73.5784 751.967 74.1342 751.812 74.6641C751.656 75.194 751.1 75.4973 750.57 75.3416C750.243 75.2454 749.915 75.1487 749.588 75.0516C749.059 74.8945 748.757 74.3379 748.914 73.8084ZM18.1155 74.1429C18.3711 74.6325 18.1814 75.2366 17.6919 75.4922C17.3855 75.6522 17.0829 75.8106 16.784 75.9674C16.2949 76.224 15.6905 76.0355 15.4339 75.5464C15.1773 75.0574 15.3658 74.4529 15.8548 74.1963C16.1548 74.0389 16.4586 73.8799 16.7662 73.7193C17.2557 73.4637 17.8598 73.6533 18.1155 74.1429ZM1805.78 75.1744C1805.93 75.7062 1805.62 76.258 1805.09 76.4067L1804.65 76.5292L1804.12 76.6759C1803.59 76.823 1803.04 76.5108 1802.89 75.9785C1802.74 75.4461 1803.06 74.8953 1803.59 74.7482L1803.76 74.7023C1804.02 74.6288 1804.29 74.5549 1804.55 74.4806C1805.08 74.3319 1805.64 74.6425 1805.78 75.1744ZM471.277 75.3693C471.442 75.8963 471.148 76.4574 470.621 76.6225C470.306 76.7213 469.99 76.82 469.675 76.9185C469.148 77.083 468.587 76.789 468.422 76.2618C468.258 75.7346 468.552 75.1739 469.079 75.0093C469.394 74.911 469.709 74.8126 470.023 74.714C470.551 74.5489 471.112 74.8423 471.277 75.3693ZM285.551 75.5913C285.775 75.0866 286.366 74.8593 286.87 75.0836C287.171 75.2174 287.473 75.3508 287.775 75.4837C288.28 75.7063 288.51 76.2965 288.287 76.802C288.064 77.3074 287.474 77.5367 286.969 77.3141C286.665 77.1802 286.361 77.0459 286.058 76.9112C285.553 76.6869 285.326 76.0959 285.551 75.5913ZM868.401 75.8105C868.576 76.3342 868.294 76.9009 867.77 77.0762C867.457 77.1811 867.143 77.2851 866.828 77.3882C866.303 77.5602 865.739 77.2742 865.567 76.7494C865.394 76.2246 865.68 75.6597 866.205 75.4877C866.516 75.3859 866.826 75.2832 867.135 75.1797C867.659 75.0044 868.225 75.2868 868.401 75.8105ZM757.749 76.332C757.892 75.7984 758.44 75.4812 758.973 75.6236C759.3 75.7108 759.627 75.7974 759.954 75.8835C760.488 76.0241 760.807 76.571 760.667 77.1051C760.526 77.6392 759.979 77.9582 759.445 77.8177C759.116 77.731 758.787 77.6438 758.458 77.556C757.924 77.4136 757.607 76.8656 757.749 76.332ZM1714.61 76.4291C1714.79 75.9096 1715.37 75.6404 1715.89 75.8279C1716.2 75.9398 1716.51 76.0505 1716.82 76.1601C1717.34 76.3433 1717.61 76.9141 1717.43 77.4351C1717.25 77.9562 1716.68 78.23 1716.16 78.0468C1715.84 77.9355 1715.52 77.8229 1715.21 77.7092C1714.69 77.5217 1714.42 76.9485 1714.61 76.4291ZM1797.06 77.5121C1797.19 78.0481 1796.86 78.5906 1796.33 78.7238C1796 78.8051 1795.67 78.8858 1795.35 78.9657C1794.81 79.097 1794.27 78.7685 1794.14 78.2321C1794.01 77.6956 1794.33 77.1543 1794.87 77.0231C1795.2 76.9437 1795.52 76.8636 1795.85 76.7828C1796.38 76.6496 1796.92 76.9761 1797.06 77.5121ZM462.761 77.9988C462.92 78.5276 462.62 79.0853 462.091 79.2444C461.774 79.3397 461.457 79.4348 461.14 79.5296C460.611 79.6879 460.054 79.3873 459.896 78.8582C459.737 78.3291 460.038 77.7718 460.567 77.6135C460.883 77.519 461.199 77.4242 461.515 77.3292C462.044 77.1701 462.602 77.4699 462.761 77.9988ZM859.856 78.4594C860.001 78.9924 859.686 79.5417 859.153 79.6864C858.835 79.7727 858.516 79.8581 858.196 79.9426C857.662 80.0838 857.115 79.7654 856.974 79.2315C856.833 78.6975 857.151 78.1502 857.685 78.0091C858 77.9257 858.315 77.8414 858.629 77.7561C859.162 77.6115 859.711 77.9264 859.856 78.4594ZM766.649 78.5853C766.773 78.0472 767.31 77.7117 767.848 77.8359C768.178 77.9121 768.509 77.9878 768.84 78.0627C769.378 78.1848 769.716 78.7203 769.594 79.259C769.472 79.7976 768.936 80.1353 768.398 80.0133C768.064 79.9377 767.731 79.8615 767.398 79.7846C766.86 79.6604 766.524 79.1235 766.649 78.5853ZM10.1375 78.3785C10.402 78.8633 10.2234 79.4707 9.73854 79.7352C9.44408 79.8959 9.15679 80.053 8.87679 80.2066C8.39255 80.4722 7.78471 80.2949 7.51914 79.8106C7.25357 79.3264 7.43084 78.7186 7.91508 78.453C8.19636 78.2987 8.48494 78.1409 8.78071 77.9795C9.26554 77.715 9.87299 77.8936 10.1375 78.3785ZM1723.11 79.2199C1723.26 78.6877 1723.81 78.3757 1724.34 78.5231C1724.65 78.6101 1724.97 78.6958 1725.29 78.7803C1725.82 78.9231 1726.14 79.4713 1725.99 80.0048C1725.85 80.5383 1725.3 80.8551 1724.77 80.7123C1724.45 80.6263 1724.13 80.5391 1723.81 80.4506C1723.27 80.3032 1722.96 79.7522 1723.11 79.2199ZM293.772 79.1223C293.979 78.6104 294.562 78.3633 295.074 78.5704C295.38 78.6943 295.687 78.8177 295.994 78.9405C296.507 79.1455 296.756 79.7275 296.551 80.2403C296.346 80.7531 295.764 81.0026 295.251 80.7976C294.942 80.6737 294.632 80.5493 294.324 80.4244C293.812 80.2173 293.565 79.6343 293.772 79.1223ZM1788.26 79.5769C1788.38 80.1172 1788.03 80.648 1787.49 80.7625C1787.28 80.8066 1787.07 80.8503 1786.87 80.8937L1786.51 80.9686C1785.97 81.0808 1785.44 80.7334 1785.32 80.1926C1785.21 79.6519 1785.56 79.1225 1786.1 79.0103L1786.62 78.9019L1787.08 78.806C1787.62 78.6915 1788.15 79.0366 1788.26 79.5769ZM775.635 80.5194C775.738 79.9768 776.262 79.6205 776.804 79.7236C777.136 79.7866 777.468 79.8489 777.8 79.9105C778.343 80.0112 778.702 80.5329 778.601 81.076C778.501 81.619 777.979 81.9777 777.436 81.8771C777.1 81.8149 776.765 81.752 776.431 81.6885C775.888 81.5854 775.532 81.0619 775.635 80.5194ZM454.211 80.5191C454.362 81.0503 454.054 81.6034 453.523 81.7546C453.205 81.8452 452.886 81.9355 452.567 82.0256C452.036 82.1757 451.483 81.8666 451.333 81.3351C451.183 80.8036 451.492 80.2511 452.024 80.1009C452.341 80.0112 452.659 79.9212 452.976 79.8309C453.507 79.6798 454.06 79.9879 454.211 80.5191ZM851.17 80.6049C851.283 81.1455 850.936 81.6754 850.396 81.7885C850.074 81.8559 849.751 81.9224 849.428 81.9879C848.886 82.0975 848.359 81.7476 848.249 81.2063C848.14 80.665 848.489 80.1373 849.031 80.0277C849.35 79.963 849.668 79.8974 849.986 79.8309C850.527 79.7178 851.057 80.0644 851.17 80.6049ZM1779.42 81.3071C1779.51 81.8517 1779.14 82.3675 1778.6 82.4591C1778.26 82.5153 1777.93 82.5704 1777.6 82.6245C1777.05 82.7133 1776.54 82.3433 1776.45 81.7982C1776.36 81.2531 1776.73 80.7393 1777.28 80.6505L1777.72 80.5774C1777.9 80.5475 1778.08 80.5173 1778.26 80.4869C1778.81 80.3952 1779.32 80.7625 1779.42 81.3071ZM1731.79 81.3398C1731.89 80.7976 1732.42 80.4431 1732.96 80.5481C1733.28 80.6102 1733.6 80.6711 1733.92 80.7306C1734.47 80.8308 1734.83 81.3523 1734.73 81.8954C1734.63 82.4385 1734.1 82.7976 1733.56 82.6975C1733.23 82.6369 1732.91 82.5749 1732.58 82.5116C1732.04 82.4067 1731.68 81.882 1731.79 81.3398ZM784.676 82.0831C784.756 81.5366 785.264 81.1582 785.81 81.2379C785.988 81.2638 786.166 81.2895 786.344 81.315C786.501 81.3375 786.658 81.3598 786.815 81.3819C787.362 81.4589 787.743 81.9646 787.666 82.5115C787.589 83.0584 787.083 83.4393 786.536 83.3624C786.197 83.3147 785.859 83.2662 785.521 83.217C784.975 83.1373 784.597 82.6296 784.676 82.0831ZM842.369 82.2391C842.45 82.7853 842.074 83.2942 841.527 83.3757C841.203 83.4241 840.878 83.4716 840.552 83.5181C840.005 83.5962 839.499 83.2163 839.421 82.6696C839.343 82.1228 839.723 81.6163 840.27 81.5382C840.591 81.4923 840.912 81.4454 841.232 81.3976C841.779 81.3161 842.287 81.6929 842.369 82.2391ZM302.123 82.3573C302.309 81.8375 302.882 81.5676 303.402 81.7543C303.519 81.7963 303.636 81.8383 303.753 81.8801C303.948 81.9499 304.144 82.0195 304.34 82.0888C304.86 82.2731 305.133 82.8446 304.948 83.3652C304.764 83.8858 304.193 84.1585 303.672 83.9741C303.356 83.8622 303.04 83.7497 302.725 83.6365C302.206 83.4497 301.936 82.877 302.123 82.3573ZM1770.47 82.6336C1770.53 83.1823 1770.13 83.678 1769.59 83.7407C1769.25 83.779 1768.91 83.8162 1768.58 83.8521C1768.03 83.9111 1767.54 83.5138 1767.48 82.9647C1767.42 82.4156 1767.82 81.9226 1768.37 81.8635C1768.7 81.8281 1769.03 81.7915 1769.36 81.7536C1769.91 81.6909 1770.4 82.0849 1770.47 82.6336ZM1740.61 82.767C1740.67 82.2182 1741.17 81.8233 1741.72 81.8851C1742.04 81.9219 1742.37 81.9573 1742.7 81.9914C1743.25 82.0484 1743.65 82.5398 1743.59 83.0892C1743.54 83.6385 1743.05 84.0377 1742.5 83.9808C1742.16 83.9461 1741.83 83.91 1741.49 83.8725C1740.95 83.8108 1740.55 83.3159 1740.61 82.767ZM445.622 82.8997C445.763 83.4336 445.445 83.9809 444.911 84.1223C444.591 84.2071 444.27 84.2916 443.949 84.3758C443.415 84.5159 442.868 84.1965 442.728 83.6622C442.588 83.128 442.907 82.5814 443.442 82.4412C443.761 82.3574 444.08 82.2733 444.399 82.1889C444.933 82.0476 445.48 82.3658 445.622 82.8997ZM2.24997 82.7705C2.52801 83.2477 2.36657 83.86 1.88938 84.138C1.76273 84.2118 1.66718 84.2678 1.60353 84.3051L1.53205 84.3472L1.51444 84.3575L1.51019 84.3601L1.50922 84.3606M793.79 83.2477C793.845 82.6981 794.334 82.2969 794.884 82.3515C795.223 82.3852 795.562 82.418 795.902 82.45C796.451 82.5018 796.855 82.9895 796.803 83.5393C796.752 84.0892 796.264 84.493 795.714 84.4412C795.371 84.4089 795.028 84.3757 794.686 84.3417C794.136 84.2871 793.735 83.7973 793.79 83.2477ZM833.499 83.363C833.55 83.913 833.145 84.3998 832.595 84.4503C832.426 84.4658 832.258 84.4811 832.088 84.4961C831.915 84.5115 831.742 84.5266 831.57 84.5415C831.02 84.589 830.535 84.1814 830.488 83.6312C830.44 83.0809 830.848 82.5964 831.398 82.5489C831.569 82.5341 831.74 82.5191 831.912 82.5039C832.079 82.4891 832.245 82.474 832.412 82.4587C832.962 82.4082 833.449 82.813 833.499 83.363ZM1761.49 83.433C1761.52 83.9847 1761.09 84.4524 1760.54 84.4776L1760.2 84.4926L1760.04 84.4992C1759.87 84.5062 1759.7 84.5129 1759.53 84.5193C1758.98 84.5399 1758.51 84.1093 1758.49 83.5574C1758.47 83.0055 1758.9 82.5413 1759.46 82.5207C1759.62 82.5144 1759.79 82.5078 1759.96 82.5009L1760.22 82.4897L1760.45 82.4796C1761 82.4544 1761.47 82.8812 1761.49 83.433ZM1749.53 83.4989C1749.55 82.9469 1750.02 82.5152 1750.57 82.5346C1750.9 82.5463 1751.23 82.5566 1751.57 82.5655C1752.12 82.5803 1752.55 83.0398 1752.54 83.5919C1752.52 84.144 1752.07 84.5796 1751.51 84.5648C1751.17 84.5557 1750.84 84.5452 1750.5 84.5334C1749.95 84.514 1749.51 84.0508 1749.53 83.4989ZM802.948 83.9888C802.977 83.4372 803.448 83.0134 803.999 83.0421C804.334 83.0596 804.67 83.0762 805.006 83.0919C805.558 83.1177 805.984 83.5859 805.958 84.1376C805.932 84.6893 805.464 85.1156 804.912 85.0897C804.573 85.0738 804.234 85.057 803.895 85.0394C803.344 85.0107 802.92 84.5403 802.948 83.9888ZM824.328 84.0411C824.354 84.5928 823.928 85.0608 823.376 85.0865C823.031 85.1026 822.686 85.1177 822.343 85.132C821.791 85.1548 821.325 84.726 821.302 84.1742C821.279 83.6224 821.708 83.1565 822.26 83.1337C822.437 83.1263 822.615 83.1187 822.793 83.1109C822.956 83.1037 823.119 83.0963 823.283 83.0887C823.835 83.063 824.303 83.4894 824.328 84.0411ZM812.115 84.2966C812.118 83.7443 812.568 83.2988 813.12 83.3015C813.458 83.3031 813.797 83.3039 814.136 83.3038C814.688 83.3037 815.136 83.7512 815.136 84.3035C815.137 84.8558 814.689 85.3037 814.137 85.3038C813.794 85.3039 813.452 85.3031 813.11 85.3015C812.558 85.2987 812.113 84.8488 812.115 84.2966ZM436.986 85.1109C437.116 85.6477 436.786 86.1881 436.249 86.3179C435.927 86.3957 435.605 86.4731 435.283 86.5502C434.745 86.6786 434.206 86.3472 434.077 85.81C433.949 85.2729 434.28 84.7334 434.818 84.605C435.138 84.5283 435.459 84.4513 435.779 84.3738C436.316 84.2441 436.857 84.5741 436.986 85.1109ZM310.6 85.2437C310.764 84.7162 311.324 84.4213 311.852 84.5849C312.164 84.6819 312.478 84.7782 312.791 84.8738C313.32 85.0348 313.617 85.5936 313.456 86.1219C313.296 86.6502 312.737 86.948 312.208 86.787C311.891 86.6904 311.575 86.5931 311.259 86.4951C310.732 86.3315 310.437 85.7712 310.6 85.2437ZM428.302 87.1245C428.419 87.6643 428.076 88.1964 427.536 88.3129C427.213 88.3826 426.89 88.4519 426.566 88.5207C426.026 88.6356 425.495 88.2908 425.38 87.7506C425.265 87.2104 425.61 86.6794 426.15 86.5644C426.471 86.496 426.793 86.4272 427.114 86.3579C427.654 86.2414 428.186 86.5846 428.302 87.1245ZM319.186 87.7373C319.324 87.2026 319.87 86.8815 320.404 87.02C320.551 87.0578 320.697 87.0955 320.843 87.1331C321.015 87.1772 321.188 87.2211 321.36 87.2649C321.896 87.4005 322.22 87.9444 322.084 88.4798C321.949 89.0152 321.405 89.3392 320.869 89.2036C320.547 89.1219 320.224 89.0394 319.903 88.9561C319.368 88.8176 319.047 88.2719 319.186 87.7373ZM419.57 88.9139C419.671 89.4567 419.314 89.9792 418.771 90.0809C418.447 90.1415 418.123 90.2017 417.798 90.2614C417.255 90.3614 416.734 90.002 416.634 89.4589C416.534 88.9157 416.893 88.3944 417.436 88.2944C417.759 88.2351 418.081 88.1753 418.403 88.115C418.946 88.0134 419.468 88.371 419.57 88.9139ZM327.888 89.8151C328 89.2743 328.529 88.9266 329.07 89.0385C329.254 89.0766 329.438 89.1144 329.623 89.152C329.762 89.1804 329.902 89.2086 330.041 89.2367C330.583 89.3456 330.933 89.8728 330.824 90.4142C330.716 90.9557 330.188 91.3063 329.647 91.1974C329.319 91.1314 328.991 91.0646 328.664 90.997C328.124 90.8851 327.776 90.356 327.888 89.8151ZM410.792 90.4548C410.878 91.0004 410.505 91.512 409.959 91.5975C409.634 91.6485 409.308 91.699 408.982 91.7489C408.436 91.8325 407.926 91.4578 407.842 90.9118C407.758 90.3659 408.133 89.8556 408.679 89.772C409.003 89.7224 409.327 89.6723 409.65 89.6216C410.195 89.5361 410.707 89.9092 410.792 90.4548ZM336.689 91.4581C336.774 90.9123 337.285 90.5385 337.831 90.6231C338.158 90.6739 338.487 90.7239 338.816 90.773C339.362 90.8546 339.739 91.3635 339.658 91.9097C339.576 92.4559 339.067 92.8326 338.521 92.7511C338.318 92.7208 338.115 92.6902 337.913 92.6593C337.783 92.6395 337.654 92.6195 337.524 92.5995C336.978 92.5149 336.605 92.0038 336.689 91.4581ZM401.972 91.7269C402.04 92.2749 401.651 92.7744 401.103 92.8425C400.776 92.8832 400.449 92.9232 400.122 92.9627C399.573 93.0288 399.075 92.6379 399.009 92.0896C398.943 91.5413 399.334 91.0432 399.882 90.9771C400.026 90.9597 400.17 90.9423 400.314 90.9247C400.495 90.9026 400.676 90.8803 400.856 90.8578C401.404 90.7897 401.904 91.1788 401.972 91.7269ZM345.567 92.6581C345.625 92.1088 346.116 91.7099 346.666 91.7672C346.997 91.8017 347.33 91.8355 347.663 91.8683C348.212 91.9225 348.614 92.4121 348.56 92.9617C348.506 93.5113 348.016 93.9129 347.466 93.8587C347.243 93.8366 347.019 93.8141 346.796 93.7913C346.683 93.7797 346.571 93.7681 346.458 93.7564C345.909 93.6991 345.51 93.2074 345.567 92.6581ZM393.115 92.7125C393.164 93.2625 392.759 93.7488 392.209 93.7986C391.881 93.8283 391.553 93.8573 391.224 93.8858C390.674 93.9336 390.19 93.5262 390.142 92.976C390.094 92.4258 390.501 91.941 391.052 91.8933C391.378 91.865 391.703 91.8362 392.029 91.8067C392.579 91.7569 393.065 92.1625 393.115 92.7125ZM384.228 93.3979C384.259 93.9494 383.837 94.4213 383.285 94.4521C383.074 94.4639 382.862 94.4755 382.651 94.4868C382.534 94.493 382.417 94.4992 382.299 94.5053C381.748 94.5339 381.277 94.11 381.249 93.5585C381.22 93.007 381.644 92.5366 382.196 92.508C382.416 92.4965 382.636 92.4848 382.856 92.4728C382.962 92.467 383.068 92.4612 383.174 92.4552C383.725 92.4245 384.197 92.8465 384.228 93.3979ZM354.497 93.4176C354.527 92.8661 354.999 92.4438 355.55 92.4743C355.718 92.4836 355.885 92.4926 356.052 92.5014C356.219 92.5101 356.385 92.5187 356.551 92.5271C357.102 92.555 357.527 93.0248 357.499 93.5764C357.471 94.1279 357.001 94.5525 356.45 94.5246C356.282 94.5161 356.115 94.5074 355.947 94.4986C355.778 94.4897 355.609 94.4806 355.44 94.4713C354.888 94.4408 354.466 93.969 354.497 93.4176ZM375.321 93.7735C375.333 94.3257 374.894 94.7825 374.342 94.7938C374.014 94.8005 373.685 94.8066 373.356 94.8121C372.804 94.8213 372.349 94.381 372.34 93.8288C372.33 93.2766 372.771 92.8215 373.323 92.8124C373.649 92.8069 373.975 92.8009 374.301 92.7942C374.853 92.7829 375.31 93.2213 375.321 93.7735ZM363.424 93.7826C363.435 93.2305 363.891 92.7913 364.443 92.8018C364.769 92.808 365.094 92.8135 365.419 92.8184C365.972 92.8268 366.413 93.2812 366.404 93.8334C366.396 94.3856 365.942 94.8265 365.389 94.8182C365.062 94.8133 364.734 94.8077 364.405 94.8015C363.853 94.791 363.414 94.3348 363.424 93.7826Z" fill="#5437B2"/>
<path opacity="0.3" d="M1 92.5C1 92.5 64.2919 47.2 129 41.5C217.699 33.6865 302.08 118.823 391 123.5C493.589 128.896 528.348 49.4802 631 53.5C712.888 56.7066 785.37 110.746 867 103.5C969.486 94.4029 982.141 22.9865 1085 20.5C1184.18 18.1024 1211.97 88.5938 1311 94.5C1413.81 100.632 1472.61 22.3512 1575 33.5C1660.15 42.771 1699.42 107.041 1785 103.5C1846.01 100.975 1921 37.5 1921 37.5" stroke="#5437B2" stroke-width="2" stroke-linecap="round" stroke-dasharray="1 8"/>
<defs>
<linearGradient id="paint0_linear" x1="0.999984" y1="-257" x2="644.871" y2="840.021" gradientUnits="userSpaceOnUse">
<stop stop-color="#793BC8"/>
<stop offset="1" stop-color="#2A2895"/>
</linearGradient>
<linearGradient id="paint1_linear" x1="0.999968" y1="-247" x2="644.356" y2="849.733" gradientUnits="userSpaceOnUse">
<stop stop-color="#2A2895"/>
<stop offset="1" stop-color="#793BC8"/>
</linearGradient>
</defs>
</svg>
