<svg width="578" height="314" viewBox="0 0 578 314" fill="none" xmlns="http://www.w3.org/2000/svg">
<path d="M575.187 227.401L522.429 209.843L511 244.081L563.758 261.639L575.187 227.401Z" fill="#A94C2F"/>
<path d="M575.173 227.384L522.442 209.849L553.733 197.879C555.07 197.368 556.581 197.872 557.344 199.082L575.173 227.384Z" fill="#FF6231"/>
<path d="M569.74 220.307L531.312 207.519C530.263 207.17 529.13 207.736 528.781 208.784L518.163 240.592C517.813 241.64 518.379 242.772 519.427 243.121L557.856 255.909C558.904 256.258 560.037 255.692 560.387 254.644L571.005 222.836C571.354 221.788 570.788 220.656 569.74 220.307Z" fill="white"/>
<g filter="url(#filter0_d)">
<path d="M522.442 209.849L511.013 244.083L542.652 236.94L522.442 209.849Z" fill="url(#paint0_linear)"/>
</g>
<g filter="url(#filter1_d)">
<path d="M575.173 227.384L563.744 261.618L542.698 236.94L575.173 227.384Z" fill="url(#paint1_linear)"/>
</g>
<path d="M563.744 261.618L511.013 244.083L542.305 232.113C543.641 231.602 545.152 232.106 545.915 233.316L563.744 261.618Z" fill="#FF6231"/>
<path d="M442.743 111.962C435.82 117.754 424.607 137.74 416.402 141.749C393.327 154.334 391.991 118.661 376.093 119.839C350.429 121.739 350.156 154.121 337.94 163.78C321.467 176.961 282.716 180.724 273.221 196.884C258.748 220.901 275.722 249.674 251.453 275.286C245.399 281.534 237.998 289.293 241.137 297.041C257.903 299.52 269.994 308.31 284.461 315.906C297.912 323.699 325.167 330.338 338.013 317.406C347.004 307.981 345.796 287.594 346.757 275.418C361.472 265.408 380.521 288.856 397.469 276.089C421.794 257.766 401.228 223.532 407.053 203.738C411.294 189.329 451.625 196.515 467.667 193.583C493.372 188.883 529.545 145.015 497.453 107.782C483.465 91.5521 456.59 100.379 442.743 111.962Z" fill="#4043AF"/>
<path d="M473.153 139C460.525 144.068 436.653 156.709 423.09 166.292M277.146 279.907C281.825 262.656 312.635 245.988 312.635 245.988M378.304 164.413C372.22 175.999 381.236 186.755 381.236 186.755M381.236 186.755C381.236 186.755 366.869 195.481 358.475 202.175C348.794 209.895 343.704 214.76 335.555 224.081M381.236 186.755C381.236 186.755 402.381 180.924 423.09 166.292M295.863 210.903C293.715 231.673 312.635 245.988 312.635 245.988M312.635 245.988C312.635 245.988 326.604 232.636 335.555 224.081M335.555 224.081C350.11 231.724 353.547 242.836 372.826 243.653M423.09 166.292C423.09 166.292 445.095 176.98 471.95 163.98" stroke="white" stroke-opacity="0.2" stroke-width="2" stroke-linecap="round" stroke-linejoin="round"/>
<path d="M258.516 114.265C274.816 118.249 291.263 108.26 295.251 91.9534C299.239 75.6472 289.257 59.1991 272.956 55.2156C256.655 51.232 240.208 61.2214 236.221 77.5276C232.233 93.8338 242.215 110.282 258.516 114.265Z" fill="url(#paint2_linear)"/>
<path d="M260.214 96.2656C262.795 96.2656 265.092 95.7456 267.09 94.8489C267.488 94.6702 268.441 95.5027 268.441 95.5027C268.441 95.5027 269.058 93.7955 269.441 93.5351C274.142 90.3376 276.632 84.842 276.632 79.8476C276.632 79.5979 276.627 79.3491 276.616 79.1018C277.743 78.2872 278.722 77.2707 279.494 76.1137C278.461 76.5735 276.608 76.8629 275.441 77.0027C276.632 76.288 278.287 75.1777 278.718 73.8306C277.603 74.4916 276.368 74.9718 275.054 75.2312C274.001 74.1096 271.601 73.5027 269.941 73.5027C266.755 73.5027 265.071 75.9923 265.071 79.1777C265.071 79.6307 265.122 80.071 265.221 80.4934C260.425 80.2521 256.172 77.9561 253.326 74.4646C251.369 79.8476 255.488 81.0321 258.441 83.0027C257.494 82.9736 253.277 81.8791 252.5 81.4465C252.499 81.4707 252.499 81.4943 252.499 81.5201C252.499 84.3147 257.441 87.8186 260.441 87.0027C259.956 87.1346 256.133 87.3797 255.607 87.3797C255.236 87.3797 252.793 87.5703 252.441 87.5027C253.176 89.7954 257.441 92.0027 259.913 91.2835C257.938 92.8315 255.45 93.7535 252.746 93.7535C252.281 93.7535 251.821 93.7269 251.369 93.6736C253.923 95.3105 256.955 96.2656 260.214 96.2656Z" fill="white"/>
<path d="M177.028 317.953C176.931 316.949 177.483 315.994 178.459 315.621C241.038 291.629 272.178 213.825 272.484 213.047C272.949 211.906 274.239 211.316 275.401 211.751C276.562 212.185 277.131 213.505 276.696 214.666C276.37 215.473 244.568 295.098 180.107 319.798C178.944 320.259 177.645 319.647 177.214 318.505C177.106 318.347 177.067 318.15 177.028 317.953Z" fill="#CEA6DC"/>
<path d="M269.607 224.471C269.607 224.471 323.696 218.816 315.865 151.74C315.676 150.118 304.955 172.908 304.692 171.214C304.393 169.29 314.565 154.088 314.141 140.85C313.717 127.613 309.875 122.988 306.203 112.683C306.203 112.683 300.847 132.632 273.85 155.174C260.997 165.915 256.502 184.776 257.418 193.286C258.334 201.795 264.236 209.68 264.236 209.68C264.464 210.84 256.24 202.633 256.572 203.736C260.249 215.982 269.607 224.471 269.607 224.471Z" fill="#CEA6DC"/>
<path d="M185.3 316.287C185.278 316.189 185.304 316.08 185.282 315.982C185.308 314.741 186.315 313.738 187.557 313.763C254.276 314.331 288.694 254.767 289.042 254.147C289.643 253.057 291.021 252.665 292.092 253.296C293.163 253.927 293.555 255.305 292.942 256.346C292.594 256.966 256.85 318.841 187.489 318.208C186.386 318.228 185.448 317.386 185.3 316.287Z" fill="#CEA6DC"/>
<path d="M285.799 263.996C285.799 263.996 315.112 270.02 327.967 242.56C328.418 241.597 313.743 252.472 313.743 252.472C313.743 252.472 326.103 241.457 329 236.171C331.897 230.884 332.785 227.305 333.383 221.324C333.502 220.137 324.665 229.675 324.743 228.423C324.743 228.423 331.237 221.301 333.787 215.591C336.337 209.88 333.712 199.738 332.436 190.009C332.436 190.009 326.428 204.624 302.855 215.98C272.981 230.422 285.799 263.996 285.799 263.996Z" fill="#CEA6DC"/>
<path d="M185.3 316.287C185.204 315.64 185.431 314.944 185.93 314.418C207.77 292.075 209.919 263.442 209.931 263.156C210.006 261.903 211.085 260.987 212.338 261.062C213.591 261.136 214.536 262.233 214.431 263.467C214.357 264.72 212.205 294.023 189.146 317.572C188.293 318.462 186.856 318.481 185.966 317.629C185.591 317.225 185.382 316.758 185.3 316.287Z" fill="#CEA6DC"/>
<path d="M210.989 269.369C210.989 269.369 199.041 260.577 194.279 244.365C194.002 243.421 200.705 249.565 200.705 249.565C200.705 249.565 193.759 239.355 192.568 220.651C191.377 201.947 197.71 190.97 241.836 155.856C241.836 155.856 240.046 166.736 237.814 180.066C235.582 193.397 227.57 205.483 227.57 205.483C227.57 205.483 240.57 191.084 240.595 192.253C240.779 200.928 239.158 205.784 242.384 216.462C255.288 259.165 210.989 269.369 210.989 269.369Z" fill="#CEA6DC"/>
<path d="M152.183 193.67C152.183 193.67 137.172 192.701 136.287 175.407C136.312 175.447 149.737 174.971 152.183 193.67Z" fill="white"/>
<path d="M153.25 175.965C153.25 175.965 144.687 168.685 153.673 160.633C153.668 160.662 162.604 168.213 153.25 175.965Z" fill="white"/>
<path d="M154.629 220.832C154.629 220.832 136.735 220.577 133.274 200.521C133.259 200.585 148.577 199.768 154.629 220.832Z" fill="white"/>
<path d="M160.12 249.557C160.12 249.557 136.369 254.284 128.195 226.426C128.195 226.426 148.496 221.551 160.12 249.557Z" fill="white"/>
<path d="M171.764 284.182C171.764 284.182 146.223 289.325 139.838 261.051C139.863 261.091 159.962 258.589 171.764 284.182Z" fill="white"/>
<path d="M152.638 207.752C152.638 207.752 166.762 207.353 167.593 188.756C167.593 188.756 152.763 191.314 152.638 207.752Z" fill="white"/>
<path d="M156.944 236.209C156.944 236.209 176.511 233.649 175.026 213.241C175.026 213.241 155.795 215.289 156.944 236.209Z" fill="white"/>
<path d="M164.497 264.716C164.497 264.716 186.395 263.973 186.334 237.003C186.334 237.003 163.381 239.981 164.497 264.716Z" fill="white"/>
<path d="M178.993 299.402C178.993 299.402 201.321 292.951 193.447 267.235C193.447 267.235 173.463 272.533 178.993 299.402Z" fill="white"/>
<path d="M191.608 320.672L189.007 322.274C188.514 321.474 140.494 240.981 152.426 164.243L155.358 164.701C143.622 240.323 191.154 319.846 191.608 320.672Z" fill="white"/>
<path d="M163.399 262.877C161.753 263.892 159.597 263.38 158.583 261.735C157.569 260.089 158.08 257.933 159.726 256.919C161.371 255.904 163.527 256.416 164.542 258.061C165.556 259.707 165.044 261.863 163.399 262.877Z" fill="#FF6231"/>
<path d="M175.142 283.832C173.496 284.846 171.34 284.335 170.326 282.689C169.312 281.044 169.823 278.888 171.469 277.873C173.114 276.859 175.27 277.371 176.285 279.016C177.299 280.661 176.787 282.818 175.142 283.832Z" fill="#FF6231"/>
<path d="M163.09 244.272C161.679 245.142 159.831 244.703 158.962 243.293C158.092 241.882 158.531 240.034 159.941 239.165C161.352 238.295 163.2 238.734 164.069 240.144C164.939 241.555 164.5 243.403 163.09 244.272Z" fill="#FF6231"/>
<path d="M150.513 203.861C149.337 204.586 147.797 204.22 147.073 203.045C146.348 201.87 146.714 200.329 147.889 199.605C149.064 198.88 150.604 199.246 151.329 200.421C152.053 201.596 151.688 203.137 150.513 203.861Z" fill="#FF6231"/>
<path d="M109.168 281.672C109.168 281.672 109.28 272.626 98.9504 271.298C98.9733 271.314 98.0684 279.342 109.168 281.672Z" fill="white"/>
<path d="M98.5025 281.495C98.5025 281.495 94.5324 276.025 89.2897 281.042C89.3075 281.04 93.4227 286.747 98.5025 281.495Z" fill="white"/>
<path d="M125.343 284.391C125.343 284.391 126.015 273.65 114.148 270.65C114.188 270.643 112.991 279.791 125.343 284.391Z" fill="white"/>
<path d="M142.313 289.009C142.313 289.009 146.243 274.985 129.916 268.798C129.916 268.798 126.056 280.747 142.313 289.009Z" fill="white"/>
<path d="M162.538 297.588C162.538 297.588 166.8 282.51 150.141 277.377C150.164 277.394 147.736 289.33 162.538 297.588Z" fill="white"/>
<path d="M117.591 282.594C117.591 282.594 116.7 291.045 105.511 290.685C105.511 290.685 107.729 281.911 117.591 282.594Z" fill="white"/>
<path d="M134.456 286.489C134.456 286.489 132.018 298.104 119.85 296.272C119.85 296.272 121.965 284.835 134.456 286.489Z" fill="white"/>
<path d="M151.202 292.332C151.202 292.332 149.746 305.429 133.577 304.148C133.577 304.148 136.421 290.522 151.202 292.332Z" fill="white"/>
<path d="M171.331 302.625C171.331 302.625 166.433 315.716 151.376 309.808C151.376 309.808 155.475 298.069 171.331 302.625Z" fill="white"/>
<path d="M183.503 311.17L184.584 309.684C184.127 309.351 138.076 276.845 91.5119 280.46L91.6509 282.239C137.538 278.69 183.029 310.86 183.503 311.17Z" fill="white"/>
<path d="M150.149 291.589C150.834 290.649 150.626 289.333 149.686 288.649C148.746 287.965 147.43 288.172 146.746 289.112C146.062 290.052 146.269 291.368 147.209 292.052C148.149 292.736 149.465 292.529 150.149 291.589Z" fill="#FF6231"/>
<path d="M162.173 299.597C162.857 298.657 162.65 297.341 161.71 296.657C160.77 295.972 159.453 296.18 158.769 297.12C158.085 298.06 158.292 299.376 159.232 300.06C160.172 300.744 161.489 300.537 162.173 299.597Z" fill="#FF6231"/>
<path d="M139.008 290.546C139.594 289.74 139.416 288.612 138.611 288.025C137.805 287.439 136.677 287.617 136.09 288.422C135.504 289.228 135.682 290.356 136.487 290.943C137.293 291.529 138.421 291.351 139.008 290.546Z" fill="#FF6231"/>
<path d="M115.356 281.14C115.845 280.469 115.697 279.528 115.025 279.04C114.354 278.551 113.414 278.699 112.925 279.371C112.436 280.042 112.584 280.982 113.256 281.471C113.927 281.96 114.867 281.812 115.356 281.14Z" fill="#FF6231"/>
<path d="M551.671 153.353C565.296 153.353 576.342 142.305 576.342 128.676C576.342 115.048 565.296 104 551.671 104C538.045 104 527 115.048 527 128.676C527 142.305 538.045 153.353 551.671 153.353Z" fill="url(#paint3_linear)"/>
<g clip-path="url(#clip0)">
<path d="M550.67 138.227L548.072 139.727C547.612 139.992 547.066 140.064 546.554 139.927C546.042 139.789 545.605 139.454 545.34 138.995L541.84 132.933C541.575 132.473 541.503 131.927 541.64 131.415C541.777 130.903 542.112 130.466 542.572 130.201L545.17 128.701M550.232 123.469L548.232 120.004C547.834 119.315 547.179 118.813 546.41 118.607C545.642 118.401 544.823 118.509 544.134 118.906L545.17 128.701L550.67 138.227L560.439 132.587C560.859 132.35 561.18 131.97 561.342 131.516C561.504 131.061 561.496 130.564 561.321 130.115L558.016 121.63C557.91 121.36 557.747 121.117 557.538 120.916C557.329 120.715 557.078 120.562 556.804 120.468C556.53 120.374 556.239 120.34 555.95 120.37C555.662 120.399 555.383 120.491 555.134 120.639L550.232 123.469Z" stroke="white" stroke-width="2" stroke-linecap="round" stroke-linejoin="round"/>
</g>
<path d="M488.791 39.2144C484.636 36.8494 481.376 32.8871 480.011 27.9112C477.276 17.9443 483.143 7.66983 493.084 4.94333C503.047 2.21067 513.321 8.08242 516.05 18.0269C518.785 27.9938 512.918 38.2683 502.977 40.9948C501.292 41.4568 499.583 41.6769 497.907 41.6582C495.488 41.6312 490.429 47.4695 488.5 49.0545C488.998 46.2659 491.454 40.7308 488.791 39.2144Z" fill="url(#paint4_linear)"/>
<path d="M504.075 24.8182C505.103 24.8121 505.932 23.9734 505.926 22.9448C505.919 21.9162 505.081 21.0873 504.053 21.0933C503.025 21.0994 502.196 21.9381 502.202 22.9667C502.209 23.9953 503.047 24.8242 504.075 24.8182Z" fill="white"/>
<path d="M499.399 22.9834C499.403 23.736 498.797 24.3494 498.045 24.3538C497.294 24.3582 496.68 23.752 496.675 22.9994C496.671 22.2467 497.277 21.6334 498.029 21.629C498.781 21.6245 499.394 22.2307 499.399 22.9834Z" stroke="white"/>
<path d="M492.022 24.8893C493.05 24.8833 493.878 24.0446 493.872 23.016C493.866 21.9874 493.027 21.1584 491.999 21.1645C490.971 21.1705 490.142 22.0092 490.149 23.0378C490.155 24.0664 490.993 24.8954 492.022 24.8893Z" fill="white"/>
<path d="M480.708 53.84C483.451 49.5461 484.435 44.1333 482.979 38.8283C480.244 28.8614 469.954 23.0182 460.013 25.7447C450.072 28.4712 444.211 38.7682 446.94 48.7126C449.675 58.6795 459.965 64.5226 469.906 61.7961C471.357 61.3983 472.732 60.8367 474 60.1321C476.958 58.4888 485.075 63.3066 488.231 64.4703C487.038 62.9224 479.798 55.264 480.708 53.84Z" fill="url(#paint5_linear)"/>
<path d="M458.968 45.6651C459.996 45.659 460.824 44.8203 460.818 43.7917C460.812 42.7631 459.973 41.9342 458.945 41.9402C457.917 41.9463 457.088 42.785 457.095 43.8136C457.101 44.8422 457.939 45.6711 458.968 45.6651Z" fill="white"/>
<path d="M464.995 45.6294C466.023 45.6234 466.851 44.7847 466.845 43.7561C466.839 42.7275 466 41.8986 464.972 41.9046C463.944 41.9106 463.116 42.7494 463.122 43.778C463.128 44.8065 463.966 45.6355 464.995 45.6294Z" fill="white"/>
<path d="M472.349 43.7236C472.353 44.4763 471.747 45.0896 470.995 45.0941C470.244 45.0985 469.63 44.4923 469.625 43.7396C469.621 42.987 470.227 42.3736 470.979 42.3692C471.731 42.3648 472.344 42.971 472.349 43.7236Z" stroke="white"/>
<path d="M93.9234 86.1272C104.726 86.1272 113.483 77.3683 113.483 66.5636C113.483 55.7589 104.726 47 93.9234 47C83.1212 47 74.3643 55.7589 74.3643 66.5636C74.3643 77.3683 83.1212 86.1272 93.9234 86.1272Z" fill="url(#paint6_linear)"/>
<path d="M90.1779 78.6907L83.326 66.8198C81.6193 63.8629 82.6301 60.0904 85.5866 58.383C88.5431 56.6757 92.3148 57.6863 94.0215 60.6431L94.6991 61.8172L96.0904 61.0137C99.0469 59.3063 102.819 60.317 104.525 63.2738C106.232 66.2307 105.221 70.0032 102.265 71.7106L90.1779 78.6907Z" fill="white"/>
<path d="M79.6342 164.477L101.864 168.547L11.9875 212.496L79.6342 164.477Z" fill="#FFDF08"/>
<path d="M11.9875 212.496L79.3642 183.047L79.8642 179.047L11.9875 212.496Z" fill="#FFA808"/>
<path d="M11.9877 212.497L74.9784 161.411L79.6351 164.474L11.9877 212.497Z" fill="#FFA808"/>
<path d="M11.9882 212.497L69.8642 145.047L74.9784 161.413L11.9882 212.497Z" fill="#FFDF08"/>
<defs>
<filter id="filter0_d" x="510.013" y="206.849" width="35.6383" height="38.2339" filterUnits="userSpaceOnUse" color-interpolation-filters="sRGB">
<feFlood flood-opacity="0" result="BackgroundImageFix"/>
<feColorMatrix in="SourceAlpha" type="matrix" values="0 0 0 0 0 0 0 0 0 0 0 0 0 0 0 0 0 0 127 0"/>
<feOffset dx="1" dy="-1"/>
<feGaussianBlur stdDeviation="1"/>
<feColorMatrix type="matrix" values="0 0 0 0 0 0 0 0 0 0 0 0 0 0 0 0 0 0 0.4 0"/>
<feBlend mode="normal" in2="BackgroundImageFix" result="effect1_dropShadow"/>
<feBlend mode="normal" in="SourceGraphic" in2="effect1_dropShadow" result="shape"/>
</filter>
<filter id="filter1_d" x="540.698" y="224.384" width="36.4746" height="38.2339" filterUnits="userSpaceOnUse" color-interpolation-filters="sRGB">
<feFlood flood-opacity="0" result="BackgroundImageFix"/>
<feColorMatrix in="SourceAlpha" type="matrix" values="0 0 0 0 0 0 0 0 0 0 0 0 0 0 0 0 0 0 127 0"/>
<feOffset dy="-1"/>
<feGaussianBlur stdDeviation="1"/>
<feColorMatrix type="matrix" values="0 0 0 0 0 0 0 0 0 0 0 0 0 0 0 0 0 0 0.4 0"/>
<feBlend mode="normal" in2="BackgroundImageFix" result="effect1_dropShadow"/>
<feBlend mode="normal" in="SourceGraphic" in2="effect1_dropShadow" result="shape"/>
</filter>
<linearGradient id="paint0_linear" x1="542.652" y1="226.966" x2="511.013" y2="226.966" gradientUnits="userSpaceOnUse">
<stop stop-color="#FFA979"/>
<stop offset="1" stop-color="#F99373"/>
</linearGradient>
<linearGradient id="paint1_linear" x1="575.173" y1="244.501" x2="542.698" y2="244.501" gradientUnits="userSpaceOnUse">
<stop stop-color="#FFA979"/>
<stop offset="1" stop-color="#F99373"/>
</linearGradient>
<linearGradient id="paint2_linear" x1="269.999" y1="62.5426" x2="256.117" y2="134.663" gradientUnits="userSpaceOnUse">
<stop stop-color="#AE8DEF"/>
<stop offset="0.9985" stop-color="#7546D9"/>
</linearGradient>
<linearGradient id="paint3_linear" x1="512.952" y1="102.094" x2="603.968" y2="164.591" gradientUnits="userSpaceOnUse">
<stop offset="0.00116186" stop-color="#24C2E4"/>
<stop offset="0.9958" stop-color="#045FF2"/>
</linearGradient>
<linearGradient id="paint4_linear" x1="491.819" y1="-19.7603" x2="503.353" y2="59.6518" gradientUnits="userSpaceOnUse">
<stop offset="0.1321" stop-color="#00A373"/>
<stop offset="1" stop-color="#1ABBC0"/>
</linearGradient>
<linearGradient id="paint5_linear" x1="447.905" y1="52.2784" x2="483.944" y2="42.3885" gradientUnits="userSpaceOnUse">
<stop stop-color="#FC727C"/>
<stop offset="1" stop-color="#FA3A54"/>
</linearGradient>
<linearGradient id="paint6_linear" x1="74.3507" y1="66.5472" x2="113.47" y2="66.5472" gradientUnits="userSpaceOnUse">
<stop stop-color="#FC727C"/>
<stop offset="1" stop-color="#FA3A54"/>
</linearGradient>
<clipPath id="clip0">
<rect width="24" height="24" fill="white" transform="translate(533.608 122.674) rotate(-30)"/>
</clipPath>
</defs>
</svg>
