<svg width="88" height="267" viewBox="0 0 88 267" fill="none" xmlns="http://www.w3.org/2000/svg">
<path d="M12.3216 20.443C12.3216 20.443 13.2922 11.696 3.84688 11.9328C3.86581 11.9465 2.82738 21.0487 12.3216 20.443Z" fill="#4043AF"/>
<path d="M35.6309 46.7543C35.6309 46.7543 45.6914 36.9996 36.8932 23.7107C36.9367 23.7394 27.7679 31.4993 35.6309 46.7543Z" fill="#4043AF"/>
<path d="M47.9261 66.0735C47.9261 66.0735 64.0007 56.0123 53.699 35.7465C53.699 35.7465 39.5113 43.8701 47.9261 66.0735Z" fill="#FF6231"/>
<path d="M59.8837 92.0593C59.8837 92.0593 77.2018 81.2744 65.6565 61.7323C65.664 61.7683 52.8659 71.1358 59.8837 92.0593Z" fill="#4043AF"/>
<path d="M42.5678 56.7616C42.5678 56.7616 30.0414 65.8102 19.9284 53.3821C19.9284 53.3821 31.9881 44.2218 42.5678 56.7616Z" fill="#4043AF"/>
<path d="M53.5723 77.0637C53.5723 77.0637 40.6934 88.3995 26.2447 72.9962C26.2447 72.9962 40.9247 62.3675 53.5723 77.0637Z" fill="#4043AF"/>
<path d="M63.9374 104.616C63.9374 104.616 47.7482 112.93 38.4258 94.0457C38.4258 94.0457 52.6602 86.3327 63.9374 104.616Z" fill="#FF6231"/>
<path d="M68.1713 123.511L70.514 123.028C70.3654 122.307 54.5059 50.6461 6.49652 13.3202L5.07124 15.1554C52.3702 51.9511 67.9866 122.797 68.1713 123.511Z" fill="#4043AF"/>
<path d="M53.2108 75.4254C54.6933 75.1198 55.6474 73.6703 55.3419 72.1878C55.0363 70.7053 53.5868 69.7512 52.1043 70.0568C50.6218 70.3623 49.6677 71.8118 49.9733 73.2943C50.2788 74.7768 51.7283 75.7309 53.2108 75.4254Z" fill="#FF6231"/>
<path d="M57.7709 93.6738C59.2534 93.3683 60.2075 91.9188 59.9019 90.4363C59.5964 88.9538 58.1469 87.9997 56.6644 88.3053C55.1819 88.6108 54.2278 90.0603 54.5334 91.5428C54.8389 93.0253 56.2884 93.9794 57.7709 93.6738Z" fill="#FF6231"/>
<path d="M43.396 64.6567C44.6667 64.3947 45.4845 63.1523 45.2226 61.8816C44.9607 60.6109 43.7183 59.7931 42.4476 60.055C41.1769 60.3169 40.3591 61.5593 40.621 62.83C40.8829 64.1007 42.1253 64.9186 43.396 64.6567Z" fill="#FF6231"/>
<path d="M28.8621 34.8719C29.921 34.6536 30.6025 33.6183 30.3842 32.5594C30.166 31.5004 29.1306 30.8189 28.0717 31.0372C27.0128 31.2554 26.3313 32.2908 26.5495 33.3497C26.7678 34.4086 27.8031 35.0901 28.8621 34.8719Z" fill="#FF6231"/>
<path d="M20.4564 32.363C21.5153 32.1447 22.1968 31.1094 21.9785 30.0504C21.7603 28.9915 20.7249 28.31 19.666 28.5283C18.6071 28.7465 17.9256 29.7819 18.1438 30.8408C18.3621 31.8997 19.3974 32.5812 20.4564 32.363Z" fill="#FF6231"/>
<path d="M16.4528 22.7757C17.5117 22.5574 18.1932 21.5221 17.975 20.4632C17.7567 19.4042 16.7214 18.7228 15.6625 18.941C14.6035 19.1593 13.922 20.1946 14.1403 21.2535C14.3585 22.3124 15.3939 22.9939 16.4528 22.7757Z" fill="#FF6231"/>
<path d="M20.7276 26.3406C21.7865 26.1224 22.468 25.087 22.2498 24.0281C22.0315 22.9692 20.9962 22.2877 19.9372 22.5059C18.8783 22.7242 18.1968 23.7595 18.4151 24.8185C18.6333 25.8774 19.6687 26.5589 20.7276 26.3406Z" fill="#FF6231"/>
<path d="M25.0035 29.9058C26.0625 29.6876 26.744 28.6522 26.5257 27.5933C26.3075 26.5344 25.2721 25.8529 24.2132 26.0711C23.1543 26.2894 22.4728 27.3247 22.691 28.3836C22.9093 29.4426 23.9446 30.1241 25.0035 29.9058Z" fill="#FF6231"/>
<path d="M23.8226 36.4192C24.8815 36.201 25.563 35.1656 25.3447 34.1067C25.1265 33.0478 24.0911 32.3663 23.0322 32.5846C21.9733 32.8028 21.2918 33.8382 21.51 34.8971C21.7283 35.956 22.7637 36.6375 23.8226 36.4192Z" fill="#FF6231"/>
<path d="M17.0901 28.3064C18.149 28.0881 18.8305 27.0528 18.6123 25.9939C18.394 24.9349 17.3587 24.2535 16.2997 24.4717C15.2408 24.69 14.5593 25.7253 14.7776 26.7842C14.9958 27.8431 16.0312 28.5246 17.0901 28.3064Z" fill="#FF6231"/>
<path d="M12.3219 23.8323C13.3808 23.614 14.0623 22.5787 13.8441 21.5197C13.6258 20.4608 12.5905 19.7793 11.5315 19.9976C10.4726 20.2158 9.79112 21.2512 10.0094 22.3101C10.2276 23.369 11.263 24.0505 12.3219 23.8323Z" fill="#FF6231"/>
<path d="M69.8552 179.053C69.5341 179.044 69.2543 178.832 69.1749 178.509C64.0633 157.792 40.7112 144.886 40.4776 144.759C40.1352 144.567 39.9999 144.136 40.1829 143.786C40.366 143.436 40.8054 143.309 41.1552 143.492C41.3973 143.627 65.2985 156.814 70.5593 178.153C70.6593 178.539 70.4148 178.925 70.0368 179.016C69.9827 179.044 69.919 179.049 69.8552 179.053Z" fill="#4043AF"/>
<path d="M43.9727 146.118C43.9727 146.118 44.3193 128.807 22.8195 128.635C22.2996 128.631 29.0768 132.917 28.5312 132.933C27.9115 132.952 23.51 129.139 19.3112 128.751C15.1124 128.363 13.4999 129.394 10.0993 130.148C10.0993 130.148 16.1904 132.627 22.2474 142.045C25.1338 146.529 30.9152 148.693 33.6397 148.739C36.3642 148.785 39.0879 147.231 39.0879 147.231C39.4635 147.205 36.5463 149.48 36.9079 149.418C40.9215 148.74 43.9727 146.118 43.9727 146.118Z" fill="#FF6231"/>
<path d="M69.6558 176.374C69.624 176.377 69.5906 176.364 69.5588 176.368C69.1675 176.31 68.8905 175.953 68.9475 175.561C71.7582 154.505 54.298 141.283 54.1158 141.148C53.7951 140.916 53.7256 140.465 53.9671 140.151C54.2087 139.838 54.6595 139.768 54.9642 140.003C55.1464 140.137 73.2846 153.87 70.3488 175.758C70.3117 176.107 70.0089 176.371 69.6558 176.374Z" fill="#4043AF"/>
<path d="M57.0987 142.561C57.0987 142.561 60.1579 133.538 51.9898 128.394C51.7034 128.214 54.5602 133.279 54.5602 133.279C54.5602 133.279 51.5677 128.94 50.0119 127.816C48.4561 126.692 47.3602 126.27 45.4943 125.846C45.1241 125.761 47.7888 128.929 47.3965 128.855C47.3965 128.855 45.4023 126.523 43.6989 125.492C41.9955 124.461 38.6876 124.89 35.5637 124.91C35.5637 124.91 39.944 127.384 42.602 135.28C45.9865 145.287 57.0987 142.561 57.0987 142.561Z" fill="#BD93D8"/>
<path d="M69.6554 176.374C69.4471 176.379 69.2363 176.28 69.0898 176.101C62.8924 168.32 53.9313 166.512 53.8414 166.497C53.4485 166.424 53.2017 166.047 53.2746 165.654C53.3474 165.261 53.7313 165.006 54.1171 165.088C54.51 165.161 63.6827 166.996 70.2128 175.21C70.4604 175.514 70.4098 175.969 70.1054 176.216C69.9631 176.319 69.8073 176.367 69.6554 176.374Z" fill="#4043AF"/>
<path d="M55.8457 166.408C55.8457 166.408 52.5967 169.836 47.2871 170.701C46.9781 170.751 49.1835 168.876 49.1835 168.876C49.1835 168.876 45.6838 170.667 39.7278 170.306C33.7718 169.945 30.5537 167.511 21.2007 152.186C21.2007 152.186 24.5671 153.18 28.6906 154.411C32.8141 155.642 36.3163 158.65 36.3163 158.65C36.3163 158.65 32.2799 153.975 32.6504 154.013C35.3981 154.297 36.8685 155.001 40.3691 154.402C54.3689 152.01 55.8457 166.408 55.8457 166.408Z" fill="#4043AF"/>
<path d="M11.6774 169.21C11.6774 169.21 14.401 169.637 18.668 170.547C18.9361 170.604 19.0792 179.491 19.0792 179.491C19.0792 179.491 20.0335 170.844 20.3128 170.906C21.586 171.189 22.9649 171.51 24.4249 171.868C24.6422 171.922 23.6025 182.369 23.6025 182.369C23.6025 182.369 25.4651 172.127 25.6586 172.176C27.2314 172.573 28.8856 173.013 30.5931 173.497C30.8659 173.574 28.1258 186.07 28.1258 186.07C28.1258 186.07 31.9627 173.891 32.2379 173.972C34.2491 174.564 36.3197 175.214 38.4061 175.926C38.5018 175.959 37.4286 179.497 36.354 183.04L34.294 190.182C34.294 190.182 39.4202 176.276 39.6397 176.354C41.8417 177.128 44.0518 177.972 46.2191 178.885C46.3715 178.95 40.4621 195.117 40.4621 195.117C40.4621 195.117 47.1945 179.302 47.4527 179.415C50.0815 180.566 52.6319 181.823 55.0108 183.191C55.2344 183.32 45.8079 200.462 45.8079 200.462C45.8079 200.462 56.2278 183.909 56.4993 184.076C59.4961 185.919 62.1689 187.951 64.3124 190.182C64.5706 190.451 50.7424 205.808 50.7424 205.808C50.7424 205.808 65.6696 191.696 65.9572 192.053C68.327 194.992 70.1801 198.426 71.6231 202.107C71.7506 202.432 55.0108 214.032 55.0108 214.032C55.0108 214.032 72.2549 203.803 72.3789 204.163C73.5437 207.546 74.3928 211.092 75.0038 214.62C75.0649 214.973 60.6114 223.079 60.6114 223.079C60.6114 223.079 75.2664 216.226 75.3076 216.499C75.7753 219.61 76.0674 222.682 76.2374 225.592C76.2608 225.991 66.7796 231.303 66.7796 231.303C66.7796 231.303 76.3382 227.606 76.3535 228.013C76.7134 237.6 75.8262 244.873 75.8262 244.873C75.8262 244.873 68.3783 243.81 58.9666 240.869C58.4245 240.7 59.5207 228.607 58.9666 228.425C58.4233 228.246 56.2298 239.979 55.6769 239.789C52.9983 238.864 50.2194 237.791 47.4527 236.555C46.9037 236.309 51.2896 219.636 50.7424 219.378C50.3303 219.183 44.9844 235.406 44.5742 235.204C41.4356 233.657 38.364 231.887 35.5276 229.871C35.1112 229.575 44.5688 212.694 44.163 212.387C43.7504 212.075 33.4746 228.337 33.0741 228.013C30.7671 226.151 28.6708 224.1 26.8922 221.845C26.6773 221.573 38.6151 206.501 38.4061 206.219C38.0134 205.69 25.4814 219.938 25.1091 219.378C23.5293 217 22.1316 214.357 20.8957 211.565C20.6973 211.117 33.6618 200.507 33.4716 200.051C33.2052 199.413 19.7881 208.926 19.5375 208.275C18.5558 205.728 17.6935 203.098 16.9367 200.462C16.8186 200.051 28.2388 193.883 28.1258 193.472C27.975 192.923 16.2929 198.131 16.1509 197.584C15.4996 195.073 14.9398 192.583 14.4594 190.182C14.3207 189.489 21.6722 185.924 21.5465 185.247C21.4694 184.833 13.9111 187.3 13.8387 186.892C13.3228 183.987 12.924 181.273 12.6179 178.885C12.554 178.387 16.9927 179.959 16.9367 179.491C16.8742 178.968 12.3178 176.408 12.2645 175.926C11.8091 171.804 11.6774 169.21 11.6774 169.21Z" fill="#CEA6DC"/>
<path d="M36.7613 254.943C36.7613 254.943 37.3447 254.034 38.3466 252.649C38.4096 252.562 41.6612 253.926 41.6612 253.926C41.6612 253.926 38.6691 252.206 38.7356 252.116C39.0388 251.704 39.3721 251.261 39.7321 250.794C39.7857 250.725 43.4186 252.763 43.4186 252.763C43.4186 252.763 39.9897 250.463 40.0379 250.401C40.4298 249.9 40.8499 249.377 41.2942 248.842C41.3652 248.756 45.475 251.73 45.475 251.73C45.475 251.73 41.6527 248.413 41.7254 248.327C42.2568 247.7 42.8189 247.061 43.4057 246.426C43.4326 246.397 44.5497 247.346 45.6681 248.296L47.9394 250.173C47.9394 250.173 43.6925 246.118 43.7551 246.052C44.383 245.386 45.037 244.727 45.71 244.096C45.7573 244.051 50.7027 248.747 50.7027 248.747C50.7027 248.747 46.0149 243.812 46.0966 243.738C46.9282 242.978 47.7862 242.264 48.6575 241.628C48.7394 241.569 53.4861 247.681 53.4861 247.681C53.4861 247.681 49.1098 241.306 49.2132 241.235C50.354 240.454 51.5128 239.819 52.6608 239.406C52.7991 239.356 56.2048 246.763 56.2048 246.763C56.2048 246.763 53.4244 239.16 53.5993 239.114C55.0402 238.733 56.5796 238.615 58.1441 238.684C58.2823 238.69 59.8648 246.543 59.8648 246.543C59.8648 246.543 58.8597 238.728 59.0102 238.741C60.4227 238.862 61.8447 239.122 63.2229 239.465C63.3607 239.5 64.0331 245.976 64.0331 245.976C64.0331 245.976 63.8477 239.627 63.9537 239.656C65.1577 239.984 66.3201 240.369 67.4039 240.771C67.5527 240.827 67.9919 245.074 67.9919 245.074C67.9919 245.074 68.1519 241.056 68.3023 241.116C71.8424 242.514 74.346 243.991 74.346 243.991C74.346 243.991 72.7882 246.493 70.2394 249.4C70.0926 249.568 65.8703 247.248 65.717 247.417C65.5667 247.584 69.4855 250.24 69.3292 250.408C68.5718 251.222 67.7451 252.047 66.8606 252.843C66.685 253.001 61.316 248.771 61.136 248.926C61.0005 249.042 66.0549 253.545 65.9169 253.66C64.861 254.539 63.7349 255.359 62.5559 256.055C62.3828 256.157 57.7362 250.075 57.5609 250.172C57.3826 250.27 61.6756 256.547 61.4951 256.639C60.4555 257.17 59.3806 257.595 58.2814 257.873C58.1486 257.907 54.5492 251.223 54.414 251.254C54.1597 251.31 57.3665 258.075 57.1043 258.12C55.9916 258.307 54.8116 258.388 53.6025 258.386C53.4083 258.386 51.5919 252.045 51.3964 252.041C51.1226 252.034 52.4691 258.363 52.1934 258.349C51.1133 258.295 50.0218 258.185 48.9451 258.037C48.7772 258.014 48.3319 252.934 48.1647 252.91C47.9415 252.876 47.9968 257.896 47.7755 257.86C46.7607 257.693 45.7679 257.497 44.8198 257.287C44.546 257.226 44.407 254.022 44.1413 253.959C43.9784 253.92 43.6862 257.025 43.5267 256.986C42.3898 256.708 41.3408 256.418 40.425 256.148C40.2339 256.091 41.5033 254.749 41.3242 254.695C41.1245 254.634 39.4778 255.86 39.2941 255.803C37.7246 255.309 36.7613 254.943 36.7613 254.943Z" fill="#4043AF"/>
<path opacity="0.3" d="M24.4246 185.248C24.4246 185.248 47.4523 200.462 63.9007 231.303" stroke="white" stroke-width="0.5"/>
</svg>
